<?xml version="1.0" encoding="UTF-8" standalone="no"?>
<!DOCTYPE svg PUBLIC "-//W3C//DTD SVG 1.1//EN"
 "http://www.w3.org/Graphics/SVG/1.1/DTD/svg11.dtd">
<!-- Generated by graphviz version 15.0.0 (20260523.1842)
 -->
<!-- Title: ER Pages: 1 -->
<svg width="1753pt" height="1291pt"
 viewBox="0.00 0.00 1753.00 1291.00" xmlns="http://www.w3.org/2000/svg" xmlns:xlink="http://www.w3.org/1999/xlink">
<g id="graph0" class="graph" transform="scale(1 1) rotate(0) translate(36 1254.5)">
<title>ER</title>
<polygon fill="#ffffff" stroke="none" points="-36,36 -36,-1254.5 1717.23,-1254.5 1717.23,36 -36,36"/>
<text xml:space="preserve" text-anchor="start" x="500.12" y="-1187" font-family="Segoe UI" font-weight="bold" font-size="30.00" fill="#0f172a">Concert Anti&#45;Bot — Entity Relationship Diagram</text>
<text xml:space="preserve" text-anchor="start" x="598.37" y="-1172.2" font-family="Segoe UI" font-size="14.00" fill="#64748b">PostgreSQL 16 · 14 entities · crow’s&#45;foot notation · seat&#45;hold = Redis (no table)</text>
<g id="clust1" class="cluster">
<title>cluster_auth</title>
<path fill="#eef2ff" stroke="#c7d2fe" stroke-width="1.5" d="M31.23,-334.5C31.23,-334.5 396.23,-334.5 396.23,-334.5 402.23,-334.5 408.23,-340.5 408.23,-346.5 408.23,-346.5 408.23,-859 408.23,-859 408.23,-865 402.23,-871 396.23,-871 396.23,-871 31.23,-871 31.23,-871 25.23,-871 19.23,-865 19.23,-859 19.23,-859 19.23,-346.5 19.23,-346.5 19.23,-340.5 25.23,-334.5 31.23,-334.5"/>
<text xml:space="preserve" text-anchor="start" x="118.11" y="-853.75" font-family="Segoe UI" font-weight="bold" font-size="15.00" fill="#3730a3">AUTH</text>
<text xml:space="preserve" text-anchor="start" x="159.36" y="-853.75" font-family="Segoe UI" font-size="15.00" fill="#3730a3"> &#160;· NextAuth v5 + RBAC</text>
</g>
<g id="clust2" class="cluster">
<title>cluster_catalog</title>
<path fill="#ecfdf5" stroke="#a7f3d0" stroke-width="1.5" d="M1103.23,-334.5C1103.23,-334.5 1309.23,-334.5 1309.23,-334.5 1315.23,-334.5 1321.23,-340.5 1321.23,-346.5 1321.23,-346.5 1321.23,-1146.5 1321.23,-1146.5 1321.23,-1152.5 1315.23,-1158.5 1309.23,-1158.5 1309.23,-1158.5 1103.23,-1158.5 1103.23,-1158.5 1097.23,-1158.5 1091.23,-1152.5 1091.23,-1146.5 1091.23,-1146.5 1091.23,-346.5 1091.23,-346.5 1091.23,-340.5 1097.23,-334.5 1103.23,-334.5"/>
<text xml:space="preserve" text-anchor="start" x="1099.36" y="-1141.25" font-family="Segoe UI" font-weight="bold" font-size="15.00" fill="#065f46">CATALOG</text>
<text xml:space="preserve" text-anchor="start" x="1165.36" y="-1141.25" font-family="Segoe UI" font-size="15.00" fill="#065f46"> &#160;· concert / zone / seat</text>
</g>
<g id="clust3" class="cluster">
<title>cluster_booking</title>
<path fill="#fffbeb" stroke="#fde68a" stroke-width="1.5" d="M648.23,-8C648.23,-8 1071.23,-8 1071.23,-8 1077.23,-8 1083.23,-14 1083.23,-20 1083.23,-20 1083.23,-558.75 1083.23,-558.75 1083.23,-564.75 1077.23,-570.75 1071.23,-570.75 1071.23,-570.75 648.23,-570.75 648.23,-570.75 642.23,-570.75 636.23,-564.75 636.23,-558.75 636.23,-558.75 636.23,-20 636.23,-20 636.23,-14 642.23,-8 648.23,-8"/>
<text xml:space="preserve" text-anchor="start" x="732.98" y="-553.5" font-family="Segoe UI" font-weight="bold" font-size="15.00" fill="#92400e">BOOKING</text>
<text xml:space="preserve" text-anchor="start" x="801.98" y="-553.5" font-family="Segoe UI" font-size="15.00" fill="#92400e"> &#160;· order → payment → ticket</text>
</g>
<g id="clust4" class="cluster">
<title>cluster_queue</title>
<path fill="#f0f9ff" stroke="#bae6fd" stroke-width="1.5" d="M428.23,-295.5C428.23,-295.5 616.23,-295.5 616.23,-295.5 622.23,-295.5 628.23,-301.5 628.23,-307.5 628.23,-307.5 628.23,-571.5 628.23,-571.5 628.23,-577.5 622.23,-583.5 616.23,-583.5 616.23,-583.5 428.23,-583.5 428.23,-583.5 422.23,-583.5 416.23,-577.5 416.23,-571.5 416.23,-571.5 416.23,-307.5 416.23,-307.5 416.23,-301.5 422.23,-295.5 428.23,-295.5"/>
<text xml:space="preserve" text-anchor="start" x="424.36" y="-566.25" font-family="Segoe UI" font-weight="bold" font-size="15.00" fill="#075985">QUEUE</text>
<text xml:space="preserve" text-anchor="start" x="473.11" y="-566.25" font-family="Segoe UI" font-size="15.00" fill="#075985"> &#160;· virtual waiting room</text>
</g>
<g id="clust5" class="cluster">
<title>cluster_antibot</title>
<path fill="#fff1f2" stroke="#fecdd3" stroke-width="1.5" d="M1341.23,-896C1341.23,-896 1661.23,-896 1661.23,-896 1667.23,-896 1673.23,-902 1673.23,-908 1673.23,-908 1673.23,-1146.5 1673.23,-1146.5 1673.23,-1152.5 1667.23,-1158.5 1661.23,-1158.5 1661.23,-1158.5 1341.23,-1158.5 1341.23,-1158.5 1335.23,-1158.5 1329.23,-1152.5 1329.23,-1146.5 1329.23,-1146.5 1329.23,-908 1329.23,-908 1329.23,-902 1335.23,-896 1341.23,-896"/>
<text xml:space="preserve" text-anchor="start" x="1402.23" y="-1141.25" font-family="Segoe UI" font-weight="bold" font-size="15.00" fill="#9f1239">ANTI&#45;BOT</text>
<text xml:space="preserve" text-anchor="start" x="1473.48" y="-1141.25" font-family="Segoe UI" font-size="15.00" fill="#9f1239"> &#160;· telemetry (no FK)</text>
</g>
<!-- USER -->
<g id="node1" class="node">
<title>USER</title>
<polygon fill="#4f46e5" stroke="none" points="46.73,-789 46.73,-819 193.73,-819 193.73,-789 46.73,-789"/>
<text xml:space="preserve" text-anchor="start" x="104.11" y="-801.65" font-family="Segoe UI" font-weight="bold" font-size="13.00" fill="#ffffff">USER</text>
<text xml:space="preserve" text-anchor="start" x="52.73" y="-771.75" font-family="Segoe UI" font-size="10.00" fill="#334155">id</text>
<text xml:space="preserve" text-anchor="start" x="177.23" y="-774.9" font-family="Segoe UI" font-weight="bold" font-size="8.00" fill="#b45309">PK</text>
<text xml:space="preserve" text-anchor="start" x="52.73" y="-745.5" font-family="Segoe UI" font-size="10.00" fill="#334155">email</text>
<text xml:space="preserve" text-anchor="start" x="176.48" y="-748.65" font-family="Segoe UI" font-weight="bold" font-size="8.00" fill="#7c3aed">UK</text>
<text xml:space="preserve" text-anchor="start" x="52.73" y="-719.25" font-family="Segoe UI" font-size="10.00" fill="#334155">role</text>
<text xml:space="preserve" text-anchor="start" x="141.23" y="-720" font-family="Segoe UI" font-size="8.00" fill="#94a3b8">USER|ADMIN</text>
<text xml:space="preserve" text-anchor="start" x="52.73" y="-693" font-family="Segoe UI" font-size="10.00" fill="#334155">passwordHash</text>
<text xml:space="preserve" text-anchor="start" x="156.23" y="-693.75" font-family="Segoe UI" font-size="8.00" fill="#94a3b8">argon2id</text>
<text xml:space="preserve" text-anchor="start" x="52.73" y="-666.75" font-family="Segoe UI" font-size="10.00" fill="#334155">trustScore</text>
<text xml:space="preserve" text-anchor="start" x="166.73" y="-667.5" font-family="Segoe UI" font-size="8.00" fill="#94a3b8">0&#45;100</text>
<text xml:space="preserve" text-anchor="start" x="52.73" y="-640.5" font-family="Segoe UI" font-size="10.00" fill="#334155">failedLoginCount</text>
<text xml:space="preserve" text-anchor="start" x="161.48" y="-641.25" font-family="Segoe UI" font-size="8.00" fill="#94a3b8">lockout</text>
<polygon fill="none" stroke="#cbd5e1" points="45.73,-630.5 45.73,-820 194.73,-820 194.73,-630.5 45.73,-630.5"/>
</g>
<!-- ACCOUNT -->
<g id="node2" class="node">
<title>ACCOUNT</title>
<polygon fill="#4f46e5" stroke="none" points="67.86,-462.5 67.86,-492.5 200.61,-492.5 200.61,-462.5 67.86,-462.5"/>
<text xml:space="preserve" text-anchor="start" x="103.11" y="-475.15" font-family="Segoe UI" font-weight="bold" font-size="13.00" fill="#ffffff">ACCOUNT</text>
<text xml:space="preserve" text-anchor="start" x="73.86" y="-445.25" font-family="Segoe UI" font-size="10.00" fill="#334155">id</text>
<text xml:space="preserve" text-anchor="start" x="184.11" y="-448.4" font-family="Segoe UI" font-weight="bold" font-size="8.00" fill="#b45309">PK</text>
<text xml:space="preserve" text-anchor="start" x="73.86" y="-419" font-family="Segoe UI" font-size="10.00" fill="#334155">userId</text>
<text xml:space="preserve" text-anchor="start" x="184.86" y="-422.15" font-family="Segoe UI" font-weight="bold" font-size="8.00" fill="#0369a1">FK</text>
<text xml:space="preserve" text-anchor="start" x="73.86" y="-392.75" font-family="Segoe UI" font-size="10.00" fill="#334155">provider</text>
<text xml:space="preserve" text-anchor="start" x="169.86" y="-393.5" font-family="Segoe UI" font-size="8.00" fill="#94a3b8">google</text>
<text xml:space="preserve" text-anchor="start" x="73.86" y="-366.5" font-family="Segoe UI" font-size="10.00" fill="#334155">providerAccountId</text>
<text xml:space="preserve" text-anchor="start" x="183.36" y="-369.65" font-family="Segoe UI" font-weight="bold" font-size="8.00" fill="#7c3aed">UK</text>
<polygon fill="none" stroke="#cbd5e1" points="66.86,-356.5 66.86,-493.5 201.61,-493.5 201.61,-356.5 66.86,-356.5"/>
</g>
<!-- USER&#45;&gt;ACCOUNT -->
<g id="edge1" class="edge">
<title>USER&#45;&gt;ACCOUNT</title>
<path fill="none" stroke="#94a3b8" stroke-width="1.5" d="M125.03,-622.13C126.8,-584.44 128.77,-542.29 130.44,-506.75"/>
<polygon fill="#94a3b8" stroke="#94a3b8" stroke-width="1.5" points="129.35,-625.9 120.36,-625.48 120.45,-623.68 129.44,-624.11 129.35,-625.9"/>
<polyline fill="none" stroke="#94a3b8" stroke-width="1.5" points="124.82,-626.59 125.03,-622.1"/>
<polygon fill="#94a3b8" stroke="#94a3b8" stroke-width="1.5" points="130.44,-506.88 134.9,-498.08 130.67,-501.89 130.83,-498.39 130.83,-498.39 130.83,-498.39 130.67,-501.89 126.81,-497.7 130.44,-506.88"/>
</g>
<!-- SESSION -->
<g id="node3" class="node">
<title>SESSION</title>
<polygon fill="#4f46e5" stroke="none" points="251.11,-462.5 251.11,-492.5 367.36,-492.5 367.36,-462.5 251.11,-462.5"/>
<text xml:space="preserve" text-anchor="start" x="282.61" y="-475.15" font-family="Segoe UI" font-weight="bold" font-size="13.00" fill="#ffffff">SESSION</text>
<text xml:space="preserve" text-anchor="start" x="257.11" y="-445.25" font-family="Segoe UI" font-size="10.00" fill="#334155">id</text>
<text xml:space="preserve" text-anchor="start" x="350.86" y="-448.4" font-family="Segoe UI" font-weight="bold" font-size="8.00" fill="#b45309">PK</text>
<text xml:space="preserve" text-anchor="start" x="257.11" y="-419" font-family="Segoe UI" font-size="10.00" fill="#334155">userId</text>
<text xml:space="preserve" text-anchor="start" x="351.61" y="-422.15" font-family="Segoe UI" font-weight="bold" font-size="8.00" fill="#0369a1">FK</text>
<text xml:space="preserve" text-anchor="start" x="257.11" y="-392.75" font-family="Segoe UI" font-size="10.00" fill="#334155">sessionToken</text>
<text xml:space="preserve" text-anchor="start" x="350.11" y="-395.9" font-family="Segoe UI" font-weight="bold" font-size="8.00" fill="#7c3aed">UK</text>
<text xml:space="preserve" text-anchor="start" x="257.11" y="-366.5" font-family="Segoe UI" font-size="10.00" fill="#334155">expires</text>
<text xml:space="preserve" text-anchor="start" x="329.11" y="-367.25" font-family="Segoe UI" font-size="8.00" fill="#94a3b8">datetime</text>
<polygon fill="none" stroke="#cbd5e1" points="250.11,-356.5 250.11,-493.5 368.36,-493.5 368.36,-356.5 250.11,-356.5"/>
</g>
<!-- USER&#45;&gt;SESSION -->
<g id="edge2" class="edge">
<title>USER&#45;&gt;SESSION</title>
<path fill="none" stroke="#94a3b8" stroke-width="1.5" d="M198.28,-623.41C207.66,-610.2 216.88,-596.67 225.23,-583.5 240.82,-558.93 256.27,-531.2 269.59,-505.93"/>
<polygon fill="#94a3b8" stroke="#94a3b8" stroke-width="1.5" points="200.07,-628.65 192.74,-623.42 193.79,-621.96 201.12,-627.18 200.07,-628.65"/>
<polyline fill="none" stroke="#94a3b8" stroke-width="1.5" points="195.88,-626.77 198.5,-623.1"/>
<polygon fill="#94a3b8" stroke="#94a3b8" stroke-width="1.5" points="269.62,-505.88 277.38,-499.79 271.94,-501.45 273.56,-498.35 273.56,-498.35 273.56,-498.35 271.94,-501.45 270.21,-496.03 269.62,-505.88"/>
</g>
<!-- ORDER -->
<g id="node8" class="node">
<title>ORDER</title>
<polygon fill="#d97706" stroke="none" points="817.86,-488.75 817.86,-518.75 932.61,-518.75 932.61,-488.75 817.86,-488.75"/>
<text xml:space="preserve" text-anchor="start" x="853.86" y="-501.4" font-family="Segoe UI" font-weight="bold" font-size="13.00" fill="#ffffff">ORDER</text>
<text xml:space="preserve" text-anchor="start" x="823.86" y="-471.5" font-family="Segoe UI" font-size="10.00" fill="#334155">id</text>
<text xml:space="preserve" text-anchor="start" x="916.11" y="-474.65" font-family="Segoe UI" font-weight="bold" font-size="8.00" fill="#b45309">PK</text>
<text xml:space="preserve" text-anchor="start" x="823.86" y="-445.25" font-family="Segoe UI" font-size="10.00" fill="#334155">userId</text>
<text xml:space="preserve" text-anchor="start" x="916.86" y="-448.4" font-family="Segoe UI" font-weight="bold" font-size="8.00" fill="#0369a1">FK</text>
<text xml:space="preserve" text-anchor="start" x="823.86" y="-419" font-family="Segoe UI" font-size="10.00" fill="#334155">concertId</text>
<text xml:space="preserve" text-anchor="start" x="916.86" y="-422.15" font-family="Segoe UI" font-weight="bold" font-size="8.00" fill="#0369a1">FK</text>
<text xml:space="preserve" text-anchor="start" x="823.86" y="-392.75" font-family="Segoe UI" font-size="10.00" fill="#334155">totalAmount</text>
<text xml:space="preserve" text-anchor="start" x="893.61" y="-393.5" font-family="Segoe UI" font-size="8.00" fill="#94a3b8">DECIMAL</text>
<text xml:space="preserve" text-anchor="start" x="823.86" y="-366.5" font-family="Segoe UI" font-size="10.00" fill="#334155">status</text>
<text xml:space="preserve" text-anchor="start" x="898.11" y="-367.25" font-family="Segoe UI" font-size="8.00" fill="#94a3b8">4 states</text>
<text xml:space="preserve" text-anchor="start" x="823.86" y="-340.25" font-family="Segoe UI" font-size="10.00" fill="#334155">expiresAt</text>
<text xml:space="preserve" text-anchor="start" x="901.11" y="-341" font-family="Segoe UI" font-size="8.00" fill="#94a3b8">+5 min</text>
<polygon fill="none" stroke="#cbd5e1" points="816.86,-330.25 816.86,-519.75 933.61,-519.75 933.61,-330.25 816.86,-330.25"/>
</g>
<!-- USER&#45;&gt;ORDER -->
<g id="edge3" class="edge">
<title>USER&#45;&gt;ORDER</title>
<path fill="none" stroke="#94a3b8" stroke-width="1.5" d="M206.48,-632.83C210.32,-630.52 214.24,-628.39 218.23,-626.5 386.94,-546.39 460.33,-646.24 636.23,-583.5 696.41,-562.04 756.42,-522.41 801.25,-488.28"/>
<polygon fill="#94a3b8" stroke="#94a3b8" stroke-width="1.5" points="205.81,-638.55 201.05,-630.91 202.58,-629.96 207.34,-637.6 205.81,-638.55"/>
<polyline fill="none" stroke="#94a3b8" stroke-width="1.5" points="202.66,-635.21 206.48,-632.83"/>
<polygon fill="#94a3b8" stroke="#94a3b8" stroke-width="1.5" points="801.35,-488.2 810.95,-485.93 805.31,-485.15 808.09,-483.02 808.09,-483.02 808.09,-483.02 805.31,-485.15 806.01,-479.51 801.35,-488.2"/>
</g>
<!-- TICKET -->
<g id="node11" class="node">
<title>TICKET</title>
<polygon fill="#d97706" stroke="none" points="833.98,-175.38 833.98,-205.38 916.48,-205.38 916.48,-175.38 833.98,-175.38"/>
<text xml:space="preserve" text-anchor="start" x="854.23" y="-188.03" font-family="Segoe UI" font-weight="bold" font-size="13.00" fill="#ffffff">TICKET</text>
<text xml:space="preserve" text-anchor="start" x="839.98" y="-158.12" font-family="Segoe UI" font-size="10.00" fill="#334155">id</text>
<text xml:space="preserve" text-anchor="start" x="899.98" y="-161.28" font-family="Segoe UI" font-weight="bold" font-size="8.00" fill="#b45309">PK</text>
<text xml:space="preserve" text-anchor="start" x="839.98" y="-131.88" font-family="Segoe UI" font-size="10.00" fill="#334155">orderId</text>
<text xml:space="preserve" text-anchor="start" x="900.73" y="-135.03" font-family="Segoe UI" font-weight="bold" font-size="8.00" fill="#0369a1">FK</text>
<text xml:space="preserve" text-anchor="start" x="839.98" y="-105.62" font-family="Segoe UI" font-size="10.00" fill="#334155">seatId</text>
<text xml:space="preserve" text-anchor="start" x="885.73" y="-108.78" font-family="Segoe UI" font-weight="bold" font-size="8.00" fill="#0369a1">FK/UK</text>
<text xml:space="preserve" text-anchor="start" x="839.98" y="-79.38" font-family="Segoe UI" font-size="10.00" fill="#334155">userId</text>
<text xml:space="preserve" text-anchor="start" x="900.73" y="-82.53" font-family="Segoe UI" font-weight="bold" font-size="8.00" fill="#0369a1">FK</text>
<text xml:space="preserve" text-anchor="start" x="839.98" y="-53.12" font-family="Segoe UI" font-size="10.00" fill="#334155">qrCode</text>
<text xml:space="preserve" text-anchor="start" x="899.23" y="-56.27" font-family="Segoe UI" font-weight="bold" font-size="8.00" fill="#7c3aed">UK</text>
<polygon fill="none" stroke="#cbd5e1" points="832.98,-43.12 832.98,-206.38 917.48,-206.38 917.48,-43.12 832.98,-43.12"/>
</g>
<!-- USER&#45;&gt;TICKET -->
<g id="edge4" class="edge">
<title>USER&#45;&gt;TICKET</title>
<path fill="none" stroke="#94a3b8" stroke-width="1.5" d="M59.71,-622.82C11.02,-526.58 -37.23,-383.9 43.23,-295.5 158.18,-169.23 661.07,-310.1 808.23,-223.5 811.72,-221.45 815.07,-219.13 818.28,-216.6"/>
<polygon fill="#94a3b8" stroke="#94a3b8" stroke-width="1.5" points="65.34,-623.95 57.32,-628.03 56.5,-626.43 64.52,-622.34 65.34,-623.95"/>
<polyline fill="none" stroke="#94a3b8" stroke-width="1.5" points="61.74,-626.79 59.69,-622.78"/>
<polygon fill="#94a3b8" stroke="#94a3b8" stroke-width="1.5" points="818.33,-216.56 827.79,-213.75 822.12,-213.29 824.76,-211.01 824.76,-211.01 824.76,-211.01 822.12,-213.29 822.5,-207.62 818.33,-216.56"/>
</g>
<!-- QUEUE_TOKEN -->
<g id="node12" class="node">
<title>QUEUE_TOKEN</title>
<polygon fill="#0284c7" stroke="none" points="465.98,-502.25 465.98,-531.5 578.48,-531.5 578.48,-502.25 465.98,-502.25"/>
<text xml:space="preserve" text-anchor="start" x="479.48" y="-515.1" font-family="Segoe UI" font-weight="bold" font-size="12.00" fill="#ffffff">QUEUE_TOKEN</text>
<text xml:space="preserve" text-anchor="start" x="471.98" y="-485" font-family="Segoe UI" font-size="10.00" fill="#334155">id</text>
<text xml:space="preserve" text-anchor="start" x="561.98" y="-488.15" font-family="Segoe UI" font-weight="bold" font-size="8.00" fill="#b45309">PK</text>
<text xml:space="preserve" text-anchor="start" x="471.98" y="-458.75" font-family="Segoe UI" font-size="10.00" fill="#334155">concertId</text>
<text xml:space="preserve" text-anchor="start" x="562.73" y="-461.9" font-family="Segoe UI" font-weight="bold" font-size="8.00" fill="#0369a1">FK</text>
<text xml:space="preserve" text-anchor="start" x="471.98" y="-432.5" font-family="Segoe UI" font-size="10.00" fill="#334155">userId</text>
<text xml:space="preserve" text-anchor="start" x="558.98" y="-435.65" font-family="Segoe UI" font-weight="bold" font-size="8.00" fill="#0369a1">FK?</text>
<text xml:space="preserve" text-anchor="start" x="471.98" y="-406.25" font-family="Segoe UI" font-size="10.00" fill="#334155">token</text>
<text xml:space="preserve" text-anchor="start" x="561.23" y="-409.4" font-family="Segoe UI" font-weight="bold" font-size="8.00" fill="#7c3aed">UK</text>
<text xml:space="preserve" text-anchor="start" x="471.98" y="-380" font-family="Segoe UI" font-size="10.00" fill="#334155">timeBucket</text>
<text xml:space="preserve" text-anchor="start" x="544.73" y="-380.75" font-family="Segoe UI" font-size="8.00" fill="#94a3b8">fairness</text>
<text xml:space="preserve" text-anchor="start" x="471.98" y="-353.75" font-family="Segoe UI" font-size="10.00" fill="#334155">randomScore</text>
<text xml:space="preserve" text-anchor="start" x="544.73" y="-354.5" font-family="Segoe UI" font-size="8.00" fill="#94a3b8">fairness</text>
<text xml:space="preserve" text-anchor="start" x="471.98" y="-327.5" font-family="Segoe UI" font-size="10.00" fill="#334155">status</text>
<text xml:space="preserve" text-anchor="start" x="543.98" y="-328.25" font-family="Segoe UI" font-size="8.00" fill="#94a3b8">5 states</text>
<polygon fill="none" stroke="#cbd5e1" points="464.98,-317.5 464.98,-532.5 579.48,-532.5 579.48,-317.5 464.98,-317.5"/>
</g>
<!-- USER&#45;&gt;QUEUE_TOKEN -->
<g id="edge5" class="edge">
<title>USER&#45;&gt;QUEUE_TOKEN</title>
<path fill="none" stroke="#94a3b8" stroke-width="1.5" d="M213.81,-629.01C215.27,-628.15 216.75,-627.31 218.23,-626.5 297.3,-583.41 341.71,-634.06 416.23,-583.5 432.05,-572.77 446.15,-558.81 458.49,-543.64"/>
<polygon fill="#94a3b8" stroke="#94a3b8" stroke-width="1.5" points="205.92,-639.43 201.05,-631.87 202.56,-630.89 207.43,-638.46 205.92,-639.43"/>
<polyline fill="none" stroke="#94a3b8" stroke-width="1.5" points="202.73,-636.14 206.51,-633.7"/>
<ellipse fill="none" stroke="#94a3b8" stroke-width="1.5" cx="210.17" cy="-631.35" rx="3.6" ry="3.6"/>
<polygon fill="#94a3b8" stroke="#94a3b8" stroke-width="1.5" points="458.53,-543.58 467.28,-539 461.62,-539.65 463.78,-536.9 463.78,-536.9 463.78,-536.9 461.62,-539.65 460.9,-534 458.53,-543.58"/>
</g>
<!-- VERIFICATION_TOKEN -->
<g id="node4" class="node">
<title>VERIFICATION_TOKEN</title>
<polygon fill="#6366f1" stroke="none" points="243.61,-750 243.61,-779.25 380.86,-779.25 380.86,-750 243.61,-750"/>
<text xml:space="preserve" text-anchor="start" x="249.61" y="-762.85" font-family="Segoe UI" font-weight="bold" font-size="12.00" fill="#ffffff">VERIFICATION_TOKEN</text>
<text xml:space="preserve" text-anchor="start" x="249.61" y="-732.75" font-family="Segoe UI" font-size="10.00" fill="#334155">token</text>
<text xml:space="preserve" text-anchor="start" x="363.61" y="-735.9" font-family="Segoe UI" font-weight="bold" font-size="8.00" fill="#7c3aed">UK</text>
<text xml:space="preserve" text-anchor="start" x="249.61" y="-706.5" font-family="Segoe UI" font-size="10.00" fill="#334155">identifier</text>
<text xml:space="preserve" text-anchor="start" x="355.36" y="-707.25" font-family="Segoe UI" font-size="8.00" fill="#94a3b8">email</text>
<text xml:space="preserve" text-anchor="start" x="249.61" y="-680.25" font-family="Segoe UI" font-size="10.00" fill="#334155">expires</text>
<text xml:space="preserve" text-anchor="start" x="342.61" y="-681" font-family="Segoe UI" font-size="8.00" fill="#94a3b8">datetime</text>
<polygon fill="none" stroke="#cbd5e1" points="242.61,-670.25 242.61,-780.25 381.86,-780.25 381.86,-670.25 242.61,-670.25"/>
</g>
<!-- CONCERT -->
<g id="node5" class="node">
<title>CONCERT</title>
<polygon fill="#059669" stroke="none" points="1118.36,-1076.5 1118.36,-1106.5 1254.11,-1106.5 1254.11,-1076.5 1118.36,-1076.5"/>
<text xml:space="preserve" text-anchor="start" x="1156.61" y="-1089.15" font-family="Segoe UI" font-weight="bold" font-size="13.00" fill="#ffffff">CONCERT</text>
<text xml:space="preserve" text-anchor="start" x="1124.36" y="-1059.25" font-family="Segoe UI" font-size="10.00" fill="#334155">id</text>
<text xml:space="preserve" text-anchor="start" x="1237.61" y="-1062.4" font-family="Segoe UI" font-weight="bold" font-size="8.00" fill="#b45309">PK</text>
<text xml:space="preserve" text-anchor="start" x="1124.36" y="-1033" font-family="Segoe UI" font-size="10.00" fill="#334155">slug</text>
<text xml:space="preserve" text-anchor="start" x="1236.86" y="-1036.15" font-family="Segoe UI" font-weight="bold" font-size="8.00" fill="#7c3aed">UK</text>
<text xml:space="preserve" text-anchor="start" x="1124.36" y="-1006.75" font-family="Segoe UI" font-size="10.00" fill="#334155">status</text>
<text xml:space="preserve" text-anchor="start" x="1219.61" y="-1007.5" font-family="Segoe UI" font-size="8.00" fill="#94a3b8">5 states</text>
<text xml:space="preserve" text-anchor="start" x="1124.36" y="-980.5" font-family="Segoe UI" font-size="10.00" fill="#334155">venue</text>
<text xml:space="preserve" text-anchor="start" x="1233.86" y="-981.25" font-family="Segoe UI" font-size="8.00" fill="#94a3b8">text</text>
<text xml:space="preserve" text-anchor="start" x="1124.36" y="-954.25" font-family="Segoe UI" font-size="10.00" fill="#334155">saleStartAt</text>
<text xml:space="preserve" text-anchor="start" x="1221.11" y="-955" font-family="Segoe UI" font-size="8.00" fill="#94a3b8">enforce</text>
<text xml:space="preserve" text-anchor="start" x="1124.36" y="-928" font-family="Segoe UI" font-size="10.00" fill="#334155">maxTicketsPerUser</text>
<text xml:space="preserve" text-anchor="start" x="1238.36" y="-928.75" font-family="Segoe UI" font-size="8.00" fill="#94a3b8">=4</text>
<polygon fill="none" stroke="#cbd5e1" points="1117.36,-918 1117.36,-1107.5 1255.11,-1107.5 1255.11,-918 1117.36,-918"/>
</g>
<!-- ZONE -->
<g id="node6" class="node">
<title>ZONE</title>
<polygon fill="#059669" stroke="none" points="1140.23,-775.88 1140.23,-805.88 1242.23,-805.88 1242.23,-775.88 1140.23,-775.88"/>
<text xml:space="preserve" text-anchor="start" x="1173.61" y="-788.52" font-family="Segoe UI" font-weight="bold" font-size="13.00" fill="#ffffff">ZONE</text>
<text xml:space="preserve" text-anchor="start" x="1146.23" y="-758.62" font-family="Segoe UI" font-size="10.00" fill="#334155">id</text>
<text xml:space="preserve" text-anchor="start" x="1225.73" y="-761.77" font-family="Segoe UI" font-weight="bold" font-size="8.00" fill="#b45309">PK</text>
<text xml:space="preserve" text-anchor="start" x="1146.23" y="-732.38" font-family="Segoe UI" font-size="10.00" fill="#334155">concertId</text>
<text xml:space="preserve" text-anchor="start" x="1226.48" y="-735.52" font-family="Segoe UI" font-weight="bold" font-size="8.00" fill="#0369a1">FK</text>
<text xml:space="preserve" text-anchor="start" x="1146.23" y="-706.12" font-family="Segoe UI" font-size="10.00" fill="#334155">name</text>
<text xml:space="preserve" text-anchor="start" x="1212.23" y="-706.88" font-family="Segoe UI" font-size="8.00" fill="#94a3b8">VIP/R1</text>
<text xml:space="preserve" text-anchor="start" x="1146.23" y="-679.88" font-family="Segoe UI" font-size="10.00" fill="#334155">price</text>
<text xml:space="preserve" text-anchor="start" x="1203.23" y="-680.62" font-family="Segoe UI" font-size="8.00" fill="#94a3b8">DECIMAL</text>
<text xml:space="preserve" text-anchor="start" x="1146.23" y="-653.62" font-family="Segoe UI" font-size="10.00" fill="#334155">totalSeats</text>
<text xml:space="preserve" text-anchor="start" x="1226.48" y="-654.38" font-family="Segoe UI" font-size="8.00" fill="#94a3b8">int</text>
<polygon fill="none" stroke="#cbd5e1" points="1139.23,-643.62 1139.23,-806.88 1243.23,-806.88 1243.23,-643.62 1139.23,-643.62"/>
</g>
<!-- CONCERT&#45;&gt;ZONE -->
<g id="edge6" class="edge">
<title>CONCERT&#45;&gt;ZONE</title>
<path fill="none" stroke="#94a3b8" stroke-width="1.5" d="M1188.02,-909.94C1188.53,-880.79 1189.08,-849.15 1189.58,-820.47"/>
<polygon fill="#94a3b8" stroke="#94a3b8" stroke-width="1.5" points="1192.45,-913.47 1183.46,-913.32 1183.49,-911.52 1192.49,-911.67 1192.45,-913.47"/>
<polyline fill="none" stroke="#94a3b8" stroke-width="1.5" points="1187.94,-914.3 1188.02,-909.8"/>
<polygon fill="#94a3b8" stroke="#94a3b8" stroke-width="1.5" points="1189.58,-820.37 1193.79,-811.44 1189.67,-815.37 1189.73,-811.87 1189.73,-811.87 1189.73,-811.87 1189.67,-815.37 1185.69,-811.3 1189.58,-820.37"/>
</g>
<!-- CONCERT&#45;&gt;ORDER -->
<g id="edge7" class="edge">
<title>CONCERT&#45;&gt;ORDER</title>
<path fill="none" stroke="#94a3b8" stroke-width="1.5" d="M1132.32,-910.2C1076.11,-804.34 988.42,-639.18 931.39,-531.77"/>
<polygon fill="#94a3b8" stroke="#94a3b8" stroke-width="1.5" points="1137.91,-911.13 1129.96,-915.35 1129.11,-913.76 1137.06,-909.54 1137.91,-911.13"/>
<polyline fill="none" stroke="#94a3b8" stroke-width="1.5" points="1134.35,-914.04 1132.24,-910.06"/>
<polygon fill="#94a3b8" stroke="#94a3b8" stroke-width="1.5" points="931.46,-531.89 930.81,-522.04 929.11,-527.47 927.47,-524.39 927.47,-524.39 927.47,-524.39 929.11,-527.47 923.66,-525.84 931.46,-531.89"/>
</g>
<!-- CONCERT&#45;&gt;QUEUE_TOKEN -->
<g id="edge8" class="edge">
<title>CONCERT&#45;&gt;QUEUE_TOKEN</title>
<path fill="none" stroke="#94a3b8" stroke-width="1.5" d="M1106.06,-963.45C990.67,-891.19 775.49,-745.96 628.23,-583.5 615.96,-569.96 604.04,-554.91 592.88,-539.62"/>
<polygon fill="#94a3b8" stroke="#94a3b8" stroke-width="1.5" points="1111.41,-961.48 1106.64,-969.12 1105.11,-968.16 1109.88,-960.53 1111.41,-961.48"/>
<polyline fill="none" stroke="#94a3b8" stroke-width="1.5" points="1109.79,-965.78 1105.97,-963.39"/>
<polygon fill="#94a3b8" stroke="#94a3b8" stroke-width="1.5" points="593.02,-539.81 591.05,-530.14 590.1,-535.75 588.06,-532.92 588.06,-532.92 588.06,-532.92 590.1,-535.75 584.48,-534.88 593.02,-539.81"/>
</g>
<!-- SEAT -->
<g id="node7" class="node">
<title>SEAT</title>
<polygon fill="#059669" stroke="none" points="1118.61,-462.5 1118.61,-492.5 1273.86,-492.5 1273.86,-462.5 1118.61,-462.5"/>
<text xml:space="preserve" text-anchor="start" x="1181.23" y="-475.15" font-family="Segoe UI" font-weight="bold" font-size="13.00" fill="#ffffff">SEAT</text>
<text xml:space="preserve" text-anchor="start" x="1124.61" y="-445.25" font-family="Segoe UI" font-size="10.00" fill="#334155">id</text>
<text xml:space="preserve" text-anchor="start" x="1257.36" y="-448.4" font-family="Segoe UI" font-weight="bold" font-size="8.00" fill="#b45309">PK</text>
<text xml:space="preserve" text-anchor="start" x="1124.61" y="-419" font-family="Segoe UI" font-size="10.00" fill="#334155">zoneId</text>
<text xml:space="preserve" text-anchor="start" x="1258.11" y="-422.15" font-family="Segoe UI" font-weight="bold" font-size="8.00" fill="#0369a1">FK</text>
<text xml:space="preserve" text-anchor="start" x="1124.61" y="-392.75" font-family="Segoe UI" font-size="10.00" fill="#334155">rowLabel+seatNumber</text>
<text xml:space="preserve" text-anchor="start" x="1256.61" y="-395.9" font-family="Segoe UI" font-weight="bold" font-size="8.00" fill="#7c3aed">UK</text>
<text xml:space="preserve" text-anchor="start" x="1124.61" y="-366.5" font-family="Segoe UI" font-size="10.00" fill="#334155">status</text>
<text xml:space="preserve" text-anchor="start" x="1239.36" y="-367.25" font-family="Segoe UI" font-size="8.00" fill="#94a3b8">4 states</text>
<polygon fill="none" stroke="#cbd5e1" points="1117.61,-356.5 1117.61,-493.5 1274.86,-493.5 1274.86,-356.5 1117.61,-356.5"/>
</g>
<!-- ZONE&#45;&gt;SEAT -->
<g id="edge9" class="edge">
<title>ZONE&#45;&gt;SEAT</title>
<path fill="none" stroke="#94a3b8" stroke-width="1.5" d="M1192.72,-635.74C1193.4,-594.89 1194.21,-546.72 1194.88,-506.86"/>
<polygon fill="#94a3b8" stroke="#94a3b8" stroke-width="1.5" points="1197.16,-639.16 1188.16,-639 1188.19,-637.2 1197.19,-637.36 1197.16,-639.16"/>
<polyline fill="none" stroke="#94a3b8" stroke-width="1.5" points="1192.65,-639.98 1192.72,-635.48"/>
<polygon fill="#94a3b8" stroke="#94a3b8" stroke-width="1.5" points="1194.88,-506.94 1199.08,-498.01 1194.96,-501.94 1195.02,-498.44 1195.02,-498.44 1195.02,-498.44 1194.96,-501.94 1190.98,-497.87 1194.88,-506.94"/>
</g>
<!-- ORDER_ITEM -->
<g id="node9" class="node">
<title>ORDER_ITEM</title>
<polygon fill="#d97706" stroke="none" points="966.23,-162.62 966.23,-191.88 1056.23,-191.88 1056.23,-162.62 966.23,-162.62"/>
<text xml:space="preserve" text-anchor="start" x="974.48" y="-175.47" font-family="Segoe UI" font-weight="bold" font-size="12.00" fill="#ffffff">ORDER_ITEM</text>
<text xml:space="preserve" text-anchor="start" x="972.23" y="-145.38" font-family="Segoe UI" font-size="10.00" fill="#334155">id</text>
<text xml:space="preserve" text-anchor="start" x="1039.73" y="-148.53" font-family="Segoe UI" font-weight="bold" font-size="8.00" fill="#b45309">PK</text>
<text xml:space="preserve" text-anchor="start" x="972.23" y="-119.12" font-family="Segoe UI" font-size="10.00" fill="#334155">orderId</text>
<text xml:space="preserve" text-anchor="start" x="1040.48" y="-122.28" font-family="Segoe UI" font-weight="bold" font-size="8.00" fill="#0369a1">FK</text>
<text xml:space="preserve" text-anchor="start" x="972.23" y="-92.88" font-family="Segoe UI" font-size="10.00" fill="#334155">seatId</text>
<text xml:space="preserve" text-anchor="start" x="1025.48" y="-96.03" font-family="Segoe UI" font-weight="bold" font-size="8.00" fill="#0369a1">FK/UK</text>
<text xml:space="preserve" text-anchor="start" x="972.23" y="-66.62" font-family="Segoe UI" font-size="10.00" fill="#334155">price</text>
<text xml:space="preserve" text-anchor="start" x="1017.98" y="-67.38" font-family="Segoe UI" font-size="8.00" fill="#94a3b8">snapshot</text>
<polygon fill="none" stroke="#cbd5e1" points="965.23,-56.62 965.23,-192.88 1057.23,-192.88 1057.23,-56.62 965.23,-56.62"/>
</g>
<!-- SEAT&#45;&gt;ORDER_ITEM -->
<g id="edge13" class="edge">
<title>SEAT&#45;&gt;ORDER_ITEM</title>
<path fill="none" stroke="#94a3b8" stroke-width="1.5" stroke-dasharray="5,2" d="M1149.68,-348.94C1123.01,-305.96 1089.52,-251.97 1062.16,-207.85"/>
<polygon fill="#94a3b8" stroke="#94a3b8" stroke-width="1.5" points="1155.27,-349.42 1147.62,-354.17 1146.67,-352.64 1154.32,-347.9 1155.27,-349.42"/>
<polyline fill="none" stroke="#94a3b8" stroke-width="1.5" points="1151.92,-352.56 1149.55,-348.74"/>
<polygon fill="#94a3b8" stroke="#94a3b8" stroke-width="1.5" points="1051.99,-200 1059.64,-195.26 1060.59,-196.79 1052.94,-201.53 1051.99,-200"/>
<polyline fill="none" stroke="#94a3b8" stroke-width="1.5" points="1055.34,-196.86 1057.72,-200.69"/>
<ellipse fill="none" stroke="#94a3b8" stroke-width="1.5" cx="1060.01" cy="-204.38" rx="3.6" ry="3.6"/>
</g>
<!-- SEAT&#45;&gt;TICKET -->
<g id="edge14" class="edge">
<title>SEAT&#45;&gt;TICKET</title>
<path fill="none" stroke="#94a3b8" stroke-width="1.5" stroke-dasharray="5,2" d="M1144.34,-349.23C1128.75,-330.14 1110.6,-310.74 1091.23,-295.5 1033.11,-249.78 997.21,-271.83 941.23,-223.5 938.88,-221.47 936.57,-219.33 934.31,-217.11"/>
<polygon fill="#94a3b8" stroke="#94a3b8" stroke-width="1.5" points="1149.95,-349.01 1142.95,-354.67 1141.82,-353.27 1148.81,-347.61 1149.95,-349.01"/>
<polyline fill="none" stroke="#94a3b8" stroke-width="1.5" points="1147.01,-352.54 1144.18,-349.04"/>
<polygon fill="#94a3b8" stroke="#94a3b8" stroke-width="1.5" points="922.66,-211.31 929.21,-205.14 930.45,-206.45 923.9,-212.62 922.66,-211.31"/>
<polyline fill="none" stroke="#94a3b8" stroke-width="1.5" points="925.32,-207.57 928.41,-210.85"/>
<ellipse fill="none" stroke="#94a3b8" stroke-width="1.5" cx="931.39" cy="-214.01" rx="3.6" ry="3.6"/>
</g>
<!-- ORDER&#45;&gt;ORDER_ITEM -->
<g id="edge10" class="edge">
<title>ORDER&#45;&gt;ORDER_ITEM</title>
<path fill="none" stroke="#94a3b8" stroke-width="1.5" d="M921.58,-322.36C939.04,-284.08 958.61,-241.14 975.01,-205.18"/>
<polygon fill="#94a3b8" stroke="#94a3b8" stroke-width="1.5" points="924.23,-327.39 916.04,-323.66 916.79,-322.02 924.98,-325.75 924.23,-327.39"/>
<polyline fill="none" stroke="#94a3b8" stroke-width="1.5" points="919.76,-326.34 921.63,-322.25"/>
<polygon fill="#94a3b8" stroke="#94a3b8" stroke-width="1.5" points="974.95,-205.32 982.37,-198.81 977.03,-200.77 978.48,-197.59 978.48,-197.59 978.48,-197.59 977.03,-200.77 975,-195.45 974.95,-205.32"/>
</g>
<!-- PAYMENT -->
<g id="node10" class="node">
<title>PAYMENT</title>
<polygon fill="#d97706" stroke="none" points="662.86,-188.5 662.86,-218.5 783.61,-218.5 783.61,-188.5 662.86,-188.5"/>
<text xml:space="preserve" text-anchor="start" x="692.48" y="-201.15" font-family="Segoe UI" font-weight="bold" font-size="13.00" fill="#ffffff">PAYMENT</text>
<text xml:space="preserve" text-anchor="start" x="668.86" y="-171.25" font-family="Segoe UI" font-size="10.00" fill="#334155">id</text>
<text xml:space="preserve" text-anchor="start" x="767.11" y="-174.4" font-family="Segoe UI" font-weight="bold" font-size="8.00" fill="#b45309">PK</text>
<text xml:space="preserve" text-anchor="start" x="668.86" y="-145" font-family="Segoe UI" font-size="10.00" fill="#334155">orderId</text>
<text xml:space="preserve" text-anchor="start" x="752.86" y="-148.15" font-family="Segoe UI" font-weight="bold" font-size="8.00" fill="#0369a1">FK/UK</text>
<text xml:space="preserve" text-anchor="start" x="668.86" y="-118.75" font-family="Segoe UI" font-size="10.00" fill="#334155">status</text>
<text xml:space="preserve" text-anchor="start" x="749.11" y="-119.5" font-family="Segoe UI" font-size="8.00" fill="#94a3b8">4 states</text>
<text xml:space="preserve" text-anchor="start" x="668.86" y="-92.5" font-family="Segoe UI" font-size="10.00" fill="#334155">slipRef</text>
<text xml:space="preserve" text-anchor="start" x="766.36" y="-95.65" font-family="Segoe UI" font-weight="bold" font-size="8.00" fill="#7c3aed">UK</text>
<text xml:space="preserve" text-anchor="start" x="668.86" y="-66.25" font-family="Segoe UI" font-size="10.00" fill="#334155">senderAccount</text>
<text xml:space="preserve" text-anchor="start" x="758.11" y="-67" font-family="Segoe UI" font-size="8.00" fill="#94a3b8">payer</text>
<text xml:space="preserve" text-anchor="start" x="668.86" y="-40" font-family="Segoe UI" font-size="10.00" fill="#334155">payerKey</text>
<text xml:space="preserve" text-anchor="start" x="764.11" y="-43.15" font-family="Segoe UI" font-weight="bold" font-size="8.00" fill="#db2777">IDX</text>
<polygon fill="none" stroke="#cbd5e1" points="661.86,-30 661.86,-219.5 784.61,-219.5 784.61,-30 661.86,-30"/>
</g>
<!-- ORDER&#45;&gt;PAYMENT -->
<g id="edge11" class="edge">
<title>ORDER&#45;&gt;PAYMENT</title>
<path fill="none" stroke="#94a3b8" stroke-width="1.5" d="M823.48,-322.45C809.13,-294.3 793.5,-263.62 778.94,-235.05"/>
<polygon fill="#94a3b8" stroke="#94a3b8" stroke-width="1.5" points="829.06,-323.5 821.04,-327.58 820.23,-325.98 828.25,-321.89 829.06,-323.5"/>
<polyline fill="none" stroke="#94a3b8" stroke-width="1.5" points="825.46,-326.34 823.42,-322.33"/>
<polygon fill="#94a3b8" stroke="#94a3b8" stroke-width="1.5" points="769.38,-226.22 777.4,-222.13 778.22,-223.73 770.2,-227.82 769.38,-226.22"/>
<polyline fill="none" stroke="#94a3b8" stroke-width="1.5" points="772.99,-223.37 775.03,-227.38"/>
<ellipse fill="none" stroke="#94a3b8" stroke-width="1.5" cx="777" cy="-231.26" rx="3.6" ry="3.6"/>
</g>
<!-- ORDER&#45;&gt;TICKET -->
<g id="edge12" class="edge">
<title>ORDER&#45;&gt;TICKET</title>
<path fill="none" stroke="#94a3b8" stroke-width="1.5" d="M875.23,-321.92C875.23,-288.76 875.23,-252.14 875.23,-219.61"/>
<polygon fill="#94a3b8" stroke="#94a3b8" stroke-width="1.5" points="879.73,-325.44 870.73,-325.44 870.73,-323.64 879.73,-323.64 879.73,-325.44"/>
<polyline fill="none" stroke="#94a3b8" stroke-width="1.5" points="875.23,-326.34 875.23,-321.84"/>
<polygon fill="#94a3b8" stroke="#94a3b8" stroke-width="1.5" points="875.23,-219.6 879.28,-210.6 875.23,-214.6 875.23,-211.1 875.23,-211.1 875.23,-211.1 875.23,-214.6 871.18,-210.6 875.23,-219.6"/>
</g>
<!-- BOT_EVENT -->
<g id="node13" class="node">
<title>BOT_EVENT</title>
<polygon fill="#e11d48" stroke="none" points="1356.23,-1076.5 1356.23,-1106.5 1458.23,-1106.5 1458.23,-1076.5 1356.23,-1076.5"/>
<text xml:space="preserve" text-anchor="start" x="1371.98" y="-1089.15" font-family="Segoe UI" font-weight="bold" font-size="13.00" fill="#ffffff">BOT_EVENT</text>
<text xml:space="preserve" text-anchor="start" x="1362.23" y="-1059.25" font-family="Segoe UI" font-size="10.00" fill="#334155">id</text>
<text xml:space="preserve" text-anchor="start" x="1441.73" y="-1062.4" font-family="Segoe UI" font-weight="bold" font-size="8.00" fill="#b45309">PK</text>
<text xml:space="preserve" text-anchor="start" x="1362.23" y="-1033" font-family="Segoe UI" font-size="10.00" fill="#334155">userId</text>
<text xml:space="preserve" text-anchor="start" x="1434.23" y="-1033.75" font-family="Segoe UI" font-size="8.00" fill="#94a3b8">audit</text>
<text xml:space="preserve" text-anchor="start" x="1362.23" y="-1006.75" font-family="Segoe UI" font-size="10.00" fill="#334155">score</text>
<text xml:space="preserve" text-anchor="start" x="1431.23" y="-1007.5" font-family="Segoe UI" font-size="8.00" fill="#94a3b8">0&#45;100</text>
<text xml:space="preserve" text-anchor="start" x="1362.23" y="-980.5" font-family="Segoe UI" font-size="10.00" fill="#334155">action</text>
<text xml:space="preserve" text-anchor="start" x="1423.73" y="-981.25" font-family="Segoe UI" font-size="8.00" fill="#94a3b8">3 states</text>
<text xml:space="preserve" text-anchor="start" x="1362.23" y="-954.25" font-family="Segoe UI" font-size="10.00" fill="#334155">signals</text>
<text xml:space="preserve" text-anchor="start" x="1437.23" y="-955" font-family="Segoe UI" font-size="8.00" fill="#94a3b8">json</text>
<text xml:space="preserve" text-anchor="start" x="1362.23" y="-928" font-family="Segoe UI" font-size="10.00" fill="#334155">checkpoint</text>
<text xml:space="preserve" text-anchor="start" x="1432.73" y="-928.75" font-family="Segoe UI" font-size="8.00" fill="#94a3b8">stage</text>
<polygon fill="none" stroke="#cbd5e1" points="1355.23,-918 1355.23,-1107.5 1459.23,-1107.5 1459.23,-918 1355.23,-918"/>
</g>
<!-- BEHAVIOR_SESSION -->
<g id="node14" class="node">
<title>BEHAVIOR_SESSION</title>
<polygon fill="#e11d48" stroke="none" points="1508.61,-1064.88 1508.61,-1091.88 1645.86,-1091.88 1645.86,-1064.88 1508.61,-1064.88"/>
<text xml:space="preserve" text-anchor="start" x="1524.73" y="-1076.42" font-family="Segoe UI" font-weight="bold" font-size="11.00" fill="#ffffff">BEHAVIOR_SESSION</text>
<text xml:space="preserve" text-anchor="start" x="1514.61" y="-1047.62" font-family="Segoe UI" font-size="10.00" fill="#334155">id</text>
<text xml:space="preserve" text-anchor="start" x="1629.36" y="-1050.78" font-family="Segoe UI" font-weight="bold" font-size="8.00" fill="#b45309">PK</text>
<text xml:space="preserve" text-anchor="start" x="1514.61" y="-1021.38" font-family="Segoe UI" font-size="10.00" fill="#334155">sessionKey</text>
<text xml:space="preserve" text-anchor="start" x="1628.61" y="-1024.53" font-family="Segoe UI" font-weight="bold" font-size="8.00" fill="#7c3aed">UK</text>
<text xml:space="preserve" text-anchor="start" x="1514.61" y="-995.12" font-family="Segoe UI" font-size="10.00" fill="#334155">mouseTimingVariance</text>
<text xml:space="preserve" text-anchor="start" x="1624.11" y="-995.88" font-family="Segoe UI" font-size="8.00" fill="#94a3b8">float</text>
<text xml:space="preserve" text-anchor="start" x="1514.61" y="-968.88" font-family="Segoe UI" font-size="10.00" fill="#334155">mousePathEntropy</text>
<text xml:space="preserve" text-anchor="start" x="1624.11" y="-969.62" font-family="Segoe UI" font-size="8.00" fill="#94a3b8">float</text>
<text xml:space="preserve" text-anchor="start" x="1514.61" y="-942.62" font-family="Segoe UI" font-size="10.00" fill="#334155">isLikelyBot</text>
<text xml:space="preserve" text-anchor="start" x="1624.11" y="-943.38" font-family="Segoe UI" font-size="8.00" fill="#94a3b8">bool</text>
<polygon fill="none" stroke="#cbd5e1" points="1507.61,-932.62 1507.61,-1092.88 1646.86,-1092.88 1646.86,-932.62 1507.61,-932.62"/>
</g>
</g>
</svg>
