<?xml version="1.0" encoding="UTF-8" standalone="no"?>
<!DOCTYPE svg PUBLIC "-//W3C//DTD SVG 1.1//EN"
 "http://www.w3.org/Graphics/SVG/1.1/DTD/svg11.dtd">
<!-- Generated by graphviz version 15.0.0 (20260523.1842)
 -->
<!-- Title: ER Pages: 1 -->
<svg width="1758pt" height="1033pt"
 viewBox="0.00 0.00 1758.00 1033.00" xmlns="http://www.w3.org/2000/svg" xmlns:xlink="http://www.w3.org/1999/xlink">
<g id="graph0" class="graph" transform="scale(1 1) rotate(0) translate(36 997.4)">
<title>ER</title>
<polygon fill="#ffffff" stroke="none" points="-36,36 -36,-997.4 1722,-997.4 1722,36 -36,36"/>
<text xml:space="preserve" text-anchor="start" x="502.5" y="-929.9" font-family="Segoe UI" font-weight="bold" font-size="30.00" fill="#0f172a">Concert Anti&#45;Bot — Entity Relationship Diagram</text>
<text xml:space="preserve" text-anchor="start" x="600.75" y="-915.1" font-family="Segoe UI" font-size="14.00" fill="#64748b">PostgreSQL 16 · 14 entities · crow’s&#45;foot notation · seat&#45;hold = Redis (no table)</text>
<g id="clust1" class="cluster">
<title>cluster_auth</title>
<path fill="#eef2ff" stroke="#c7d2fe" stroke-width="1.5" d="M20,-273.25C20,-273.25 389,-273.25 389,-273.25 395,-273.25 401,-279.25 401,-285.25 401,-285.25 401,-801.75 401,-801.75 401,-807.75 395,-813.75 389,-813.75 389,-813.75 20,-813.75 20,-813.75 14,-813.75 8,-807.75 8,-801.75 8,-801.75 8,-285.25 8,-285.25 8,-279.25 14,-273.25 20,-273.25"/>
<text xml:space="preserve" text-anchor="start" x="108.88" y="-796.5" font-family="Segoe UI" font-weight="bold" font-size="15.00" fill="#3730a3">AUTH</text>
<text xml:space="preserve" text-anchor="start" x="150.12" y="-796.5" font-family="Segoe UI" font-size="15.00" fill="#3730a3"> &#160;· NextAuth v5 + RBAC</text>
</g>
<g id="clust2" class="cluster">
<title>cluster_catalog</title>
<path fill="#ecfdf5" stroke="#a7f3d0" stroke-width="1.5" d="M884,-8C884,-8 1090,-8 1090,-8 1096,-8 1102,-14 1102,-20 1102,-20 1102,-801.75 1102,-801.75 1102,-807.75 1096,-813.75 1090,-813.75 1090,-813.75 884,-813.75 884,-813.75 878,-813.75 872,-807.75 872,-801.75 872,-801.75 872,-20 872,-20 872,-14 878,-8 884,-8"/>
<text xml:space="preserve" text-anchor="start" x="880.12" y="-796.5" font-family="Segoe UI" font-weight="bold" font-size="15.00" fill="#065f46">CATALOG</text>
<text xml:space="preserve" text-anchor="start" x="946.12" y="-796.5" font-family="Segoe UI" font-size="15.00" fill="#065f46"> &#160;· concert / zone / seat</text>
</g>
<g id="clust3" class="cluster">
<title>cluster_booking</title>
<path fill="#fffbeb" stroke="#fde68a" stroke-width="1.5" d="M421,-247C421,-247 852,-247 852,-247 858,-247 864,-253 864,-259 864,-259 864,-801.75 864,-801.75 864,-807.75 858,-813.75 852,-813.75 852,-813.75 421,-813.75 421,-813.75 415,-813.75 409,-807.75 409,-801.75 409,-801.75 409,-259 409,-259 409,-253 415,-247 421,-247"/>
<text xml:space="preserve" text-anchor="start" x="509.75" y="-796.5" font-family="Segoe UI" font-weight="bold" font-size="15.00" fill="#92400e">BOOKING</text>
<text xml:space="preserve" text-anchor="start" x="578.75" y="-796.5" font-family="Segoe UI" font-size="15.00" fill="#92400e"> &#160;· order → payment → ticket</text>
</g>
<g id="clust4" class="cluster">
<title>cluster_queue</title>
<path fill="#f0f9ff" stroke="#bae6fd" stroke-width="1.5" d="M1122,-538.5C1122,-538.5 1310,-538.5 1310,-538.5 1316,-538.5 1322,-544.5 1322,-550.5 1322,-550.5 1322,-814.5 1322,-814.5 1322,-820.5 1316,-826.5 1310,-826.5 1310,-826.5 1122,-826.5 1122,-826.5 1116,-826.5 1110,-820.5 1110,-814.5 1110,-814.5 1110,-550.5 1110,-550.5 1110,-544.5 1116,-538.5 1122,-538.5"/>
<text xml:space="preserve" text-anchor="start" x="1118.12" y="-809.25" font-family="Segoe UI" font-weight="bold" font-size="15.00" fill="#075985">QUEUE</text>
<text xml:space="preserve" text-anchor="start" x="1166.88" y="-809.25" font-family="Segoe UI" font-size="15.00" fill="#075985"> &#160;· virtual waiting room</text>
</g>
<g id="clust5" class="cluster">
<title>cluster_antibot</title>
<path fill="#fff1f2" stroke="#fecdd3" stroke-width="1.5" d="M1342,-551.25C1342,-551.25 1666,-551.25 1666,-551.25 1672,-551.25 1678,-557.25 1678,-563.25 1678,-563.25 1678,-801.75 1678,-801.75 1678,-807.75 1672,-813.75 1666,-813.75 1666,-813.75 1342,-813.75 1342,-813.75 1336,-813.75 1330,-807.75 1330,-801.75 1330,-801.75 1330,-563.25 1330,-563.25 1330,-557.25 1336,-551.25 1342,-551.25"/>
<text xml:space="preserve" text-anchor="start" x="1405" y="-796.5" font-family="Segoe UI" font-weight="bold" font-size="15.00" fill="#9f1239">ANTI&#45;BOT</text>
<text xml:space="preserve" text-anchor="start" x="1476.25" y="-796.5" font-family="Segoe UI" font-size="15.00" fill="#9f1239"> &#160;· telemetry (no FK)</text>
</g>
<!-- USER -->
<g id="node1" class="node">
<title>USER</title>
<polygon fill="#4f46e5" stroke="none" points="35.5,-731.75 35.5,-761.75 182.5,-761.75 182.5,-731.75 35.5,-731.75"/>
<text xml:space="preserve" text-anchor="start" x="92.88" y="-744.4" font-family="Segoe UI" font-weight="bold" font-size="13.00" fill="#ffffff">USER</text>
<text xml:space="preserve" text-anchor="start" x="41.5" y="-714.5" font-family="Segoe UI" font-size="10.00" fill="#334155">id</text>
<text xml:space="preserve" text-anchor="start" x="166" y="-717.65" font-family="Segoe UI" font-weight="bold" font-size="8.00" fill="#b45309">PK</text>
<text xml:space="preserve" text-anchor="start" x="41.5" y="-688.25" font-family="Segoe UI" font-size="10.00" fill="#334155">email</text>
<text xml:space="preserve" text-anchor="start" x="165.25" y="-691.4" font-family="Segoe UI" font-weight="bold" font-size="8.00" fill="#7c3aed">UK</text>
<text xml:space="preserve" text-anchor="start" x="41.5" y="-662" font-family="Segoe UI" font-size="10.00" fill="#334155">role</text>
<text xml:space="preserve" text-anchor="start" x="130" y="-662.75" font-family="Segoe UI" font-size="8.00" fill="#94a3b8">USER|ADMIN</text>
<text xml:space="preserve" text-anchor="start" x="41.5" y="-635.75" font-family="Segoe UI" font-size="10.00" fill="#334155">passwordHash</text>
<text xml:space="preserve" text-anchor="start" x="145" y="-636.5" font-family="Segoe UI" font-size="8.00" fill="#94a3b8">argon2id</text>
<text xml:space="preserve" text-anchor="start" x="41.5" y="-609.5" font-family="Segoe UI" font-size="10.00" fill="#334155">trustScore</text>
<text xml:space="preserve" text-anchor="start" x="155.5" y="-610.25" font-family="Segoe UI" font-size="8.00" fill="#94a3b8">0&#45;100</text>
<text xml:space="preserve" text-anchor="start" x="41.5" y="-583.25" font-family="Segoe UI" font-size="10.00" fill="#334155">failedLoginCount</text>
<text xml:space="preserve" text-anchor="start" x="150.25" y="-584" font-family="Segoe UI" font-size="8.00" fill="#94a3b8">lockout</text>
<polygon fill="none" stroke="#cbd5e1" points="34.5,-573.25 34.5,-762.75 183.5,-762.75 183.5,-573.25 34.5,-573.25"/>
</g>
<!-- ACCOUNT -->
<g id="node2" class="node">
<title>ACCOUNT</title>
<polygon fill="#4f46e5" stroke="none" points="38.62,-401.25 38.62,-431.25 171.38,-431.25 171.38,-401.25 38.62,-401.25"/>
<text xml:space="preserve" text-anchor="start" x="73.88" y="-413.9" font-family="Segoe UI" font-weight="bold" font-size="13.00" fill="#ffffff">ACCOUNT</text>
<text xml:space="preserve" text-anchor="start" x="44.62" y="-384" font-family="Segoe UI" font-size="10.00" fill="#334155">id</text>
<text xml:space="preserve" text-anchor="start" x="154.88" y="-387.15" font-family="Segoe UI" font-weight="bold" font-size="8.00" fill="#b45309">PK</text>
<text xml:space="preserve" text-anchor="start" x="44.62" y="-357.75" font-family="Segoe UI" font-size="10.00" fill="#334155">userId</text>
<text xml:space="preserve" text-anchor="start" x="155.62" y="-360.9" font-family="Segoe UI" font-weight="bold" font-size="8.00" fill="#0369a1">FK</text>
<text xml:space="preserve" text-anchor="start" x="44.62" y="-331.5" font-family="Segoe UI" font-size="10.00" fill="#334155">provider</text>
<text xml:space="preserve" text-anchor="start" x="140.62" y="-332.25" font-family="Segoe UI" font-size="8.00" fill="#94a3b8">google</text>
<text xml:space="preserve" text-anchor="start" x="44.62" y="-305.25" font-family="Segoe UI" font-size="10.00" fill="#334155">providerAccountId</text>
<text xml:space="preserve" text-anchor="start" x="154.12" y="-308.4" font-family="Segoe UI" font-weight="bold" font-size="8.00" fill="#7c3aed">UK</text>
<polygon fill="none" stroke="#cbd5e1" points="37.62,-295.25 37.62,-432.25 172.38,-432.25 172.38,-295.25 37.62,-295.25"/>
</g>
<!-- USER&#45;&gt;ACCOUNT -->
<g id="edge1" class="edge">
<title>USER&#45;&gt;ACCOUNT</title>
<path fill="none" stroke="#94a3b8" stroke-width="1.5" d="M107.65,-564.93C107.13,-525.98 106.55,-482.15 106.07,-445.45"/>
<polygon fill="#94a3b8" stroke="#94a3b8" stroke-width="1.5" points="112.19,-568.33 103.2,-568.45 103.17,-566.65 112.17,-566.53 112.19,-568.33"/>
<polyline fill="none" stroke="#94a3b8" stroke-width="1.5" points="107.71,-569.29 107.65,-564.79"/>
<polygon fill="#94a3b8" stroke="#94a3b8" stroke-width="1.5" points="106.07,-445.29 110,-436.24 106,-440.29 105.95,-436.79 105.95,-436.79 105.95,-436.79 106,-440.29 101.9,-436.35 106.07,-445.29"/>
</g>
<!-- SESSION -->
<g id="node3" class="node">
<title>SESSION</title>
<polygon fill="#4f46e5" stroke="none" points="225.88,-401.25 225.88,-431.25 342.12,-431.25 342.12,-401.25 225.88,-401.25"/>
<text xml:space="preserve" text-anchor="start" x="257.38" y="-413.9" font-family="Segoe UI" font-weight="bold" font-size="13.00" fill="#ffffff">SESSION</text>
<text xml:space="preserve" text-anchor="start" x="231.88" y="-384" font-family="Segoe UI" font-size="10.00" fill="#334155">id</text>
<text xml:space="preserve" text-anchor="start" x="325.62" y="-387.15" font-family="Segoe UI" font-weight="bold" font-size="8.00" fill="#b45309">PK</text>
<text xml:space="preserve" text-anchor="start" x="231.88" y="-357.75" font-family="Segoe UI" font-size="10.00" fill="#334155">userId</text>
<text xml:space="preserve" text-anchor="start" x="326.38" y="-360.9" font-family="Segoe UI" font-weight="bold" font-size="8.00" fill="#0369a1">FK</text>
<text xml:space="preserve" text-anchor="start" x="231.88" y="-331.5" font-family="Segoe UI" font-size="10.00" fill="#334155">sessionToken</text>
<text xml:space="preserve" text-anchor="start" x="324.88" y="-334.65" font-family="Segoe UI" font-weight="bold" font-size="8.00" fill="#7c3aed">UK</text>
<text xml:space="preserve" text-anchor="start" x="231.88" y="-305.25" font-family="Segoe UI" font-size="10.00" fill="#334155">expires</text>
<text xml:space="preserve" text-anchor="start" x="303.88" y="-306" font-family="Segoe UI" font-size="8.00" fill="#94a3b8">datetime</text>
<polygon fill="none" stroke="#cbd5e1" points="224.88,-295.25 224.88,-432.25 343.12,-432.25 343.12,-295.25 224.88,-295.25"/>
</g>
<!-- USER&#45;&gt;SESSION -->
<g id="edge2" class="edge">
<title>USER&#45;&gt;SESSION</title>
<path fill="none" stroke="#94a3b8" stroke-width="1.5" d="M167.8,-565.45C190.71,-525.88 216.57,-481.21 238.07,-444.08"/>
<polygon fill="#94a3b8" stroke="#94a3b8" stroke-width="1.5" points="169.92,-570.76 162.13,-566.25 163.03,-564.69 170.82,-569.2 169.92,-570.76"/>
<polyline fill="none" stroke="#94a3b8" stroke-width="1.5" points="165.58,-569.29 167.83,-565.39"/>
<polygon fill="#94a3b8" stroke="#94a3b8" stroke-width="1.5" points="238.11,-444.01 246.12,-438.25 240.61,-439.68 242.37,-436.66 242.37,-436.66 242.37,-436.66 240.61,-439.68 239.11,-434.2 238.11,-444.01"/>
</g>
<!-- ORDER -->
<g id="node8" class="node">
<title>ORDER</title>
<polygon fill="#d97706" stroke="none" points="582.62,-731.75 582.62,-761.75 697.38,-761.75 697.38,-731.75 582.62,-731.75"/>
<text xml:space="preserve" text-anchor="start" x="618.62" y="-744.4" font-family="Segoe UI" font-weight="bold" font-size="13.00" fill="#ffffff">ORDER</text>
<text xml:space="preserve" text-anchor="start" x="588.62" y="-714.5" font-family="Segoe UI" font-size="10.00" fill="#334155">id</text>
<text xml:space="preserve" text-anchor="start" x="680.88" y="-717.65" font-family="Segoe UI" font-weight="bold" font-size="8.00" fill="#b45309">PK</text>
<text xml:space="preserve" text-anchor="start" x="588.62" y="-688.25" font-family="Segoe UI" font-size="10.00" fill="#334155">userId</text>
<text xml:space="preserve" text-anchor="start" x="681.62" y="-691.4" font-family="Segoe UI" font-weight="bold" font-size="8.00" fill="#0369a1">FK</text>
<text xml:space="preserve" text-anchor="start" x="588.62" y="-662" font-family="Segoe UI" font-size="10.00" fill="#334155">concertId</text>
<text xml:space="preserve" text-anchor="start" x="681.62" y="-665.15" font-family="Segoe UI" font-weight="bold" font-size="8.00" fill="#0369a1">FK</text>
<text xml:space="preserve" text-anchor="start" x="588.62" y="-635.75" font-family="Segoe UI" font-size="10.00" fill="#334155">totalAmount</text>
<text xml:space="preserve" text-anchor="start" x="658.38" y="-636.5" font-family="Segoe UI" font-size="8.00" fill="#94a3b8">DECIMAL</text>
<text xml:space="preserve" text-anchor="start" x="588.62" y="-609.5" font-family="Segoe UI" font-size="10.00" fill="#334155">status</text>
<text xml:space="preserve" text-anchor="start" x="662.88" y="-610.25" font-family="Segoe UI" font-size="8.00" fill="#94a3b8">4 states</text>
<text xml:space="preserve" text-anchor="start" x="588.62" y="-583.25" font-family="Segoe UI" font-size="10.00" fill="#334155">expiresAt</text>
<text xml:space="preserve" text-anchor="start" x="665.88" y="-584" font-family="Segoe UI" font-size="8.00" fill="#94a3b8">+5 min</text>
<polygon fill="none" stroke="#cbd5e1" points="581.62,-573.25 581.62,-762.75 698.38,-762.75 698.38,-573.25 581.62,-573.25"/>
</g>
<!-- USER&#45;&gt;ORDER -->
<g id="edge8" class="edge">
<title>USER&#45;&gt;ORDER</title>
<path fill="none" stroke="#94a3b8" stroke-width="1.5" d="M142.29,-770.47C160.68,-809.91 187.94,-850.89 227,-873.5 290.47,-910.24 323.01,-898.37 392,-873.5 459.69,-849.1 521.98,-797.31 567.21,-751.83"/>
<polygon fill="#94a3b8" stroke="#94a3b8" stroke-width="1.5" points="136.83,-769.35 145,-765.6 145.76,-767.23 137.58,-770.99 136.83,-769.35"/>
<polyline fill="none" stroke="#94a3b8" stroke-width="1.5" points="140.54,-766.66 142.42,-770.75"/>
<polygon fill="#94a3b8" stroke="#94a3b8" stroke-width="1.5" points="567.1,-751.95 576.29,-748.37 570.6,-748.38 573.05,-745.89 573.05,-745.89 573.05,-745.89 570.6,-748.38 570.52,-742.69 567.1,-751.95"/>
</g>
<!-- TICKET -->
<g id="node11" class="node">
<title>TICKET</title>
<polygon fill="#d97706" stroke="none" points="754.75,-414.38 754.75,-444.38 837.25,-444.38 837.25,-414.38 754.75,-414.38"/>
<text xml:space="preserve" text-anchor="start" x="775" y="-427.02" font-family="Segoe UI" font-weight="bold" font-size="13.00" fill="#ffffff">TICKET</text>
<text xml:space="preserve" text-anchor="start" x="760.75" y="-397.12" font-family="Segoe UI" font-size="10.00" fill="#334155">id</text>
<text xml:space="preserve" text-anchor="start" x="820.75" y="-400.27" font-family="Segoe UI" font-weight="bold" font-size="8.00" fill="#b45309">PK</text>
<text xml:space="preserve" text-anchor="start" x="760.75" y="-370.88" font-family="Segoe UI" font-size="10.00" fill="#334155">orderId</text>
<text xml:space="preserve" text-anchor="start" x="821.5" y="-374.02" font-family="Segoe UI" font-weight="bold" font-size="8.00" fill="#0369a1">FK</text>
<text xml:space="preserve" text-anchor="start" x="760.75" y="-344.62" font-family="Segoe UI" font-size="10.00" fill="#334155">seatId</text>
<text xml:space="preserve" text-anchor="start" x="806.5" y="-347.77" font-family="Segoe UI" font-weight="bold" font-size="8.00" fill="#0369a1">FK/UK</text>
<text xml:space="preserve" text-anchor="start" x="760.75" y="-318.38" font-family="Segoe UI" font-size="10.00" fill="#334155">userId</text>
<text xml:space="preserve" text-anchor="start" x="821.5" y="-321.52" font-family="Segoe UI" font-weight="bold" font-size="8.00" fill="#0369a1">FK</text>
<text xml:space="preserve" text-anchor="start" x="760.75" y="-292.12" font-family="Segoe UI" font-size="10.00" fill="#334155">qrCode</text>
<text xml:space="preserve" text-anchor="start" x="820" y="-295.27" font-family="Segoe UI" font-weight="bold" font-size="8.00" fill="#7c3aed">UK</text>
<polygon fill="none" stroke="#cbd5e1" points="753.75,-282.12 753.75,-445.38 838.25,-445.38 838.25,-282.12 753.75,-282.12"/>
</g>
<!-- USER&#45;&gt;TICKET -->
<g id="edge9" class="edge">
<title>USER&#45;&gt;TICKET</title>
<path fill="none" stroke="#94a3b8" stroke-width="1.5" d="M174.04,-566.41C184.59,-555.63 196.27,-545.91 209,-538.5 410.05,-421.35 528.74,-584.3 727,-462.5 731.21,-459.92 735.23,-456.97 739.06,-453.75"/>
<polygon fill="#94a3b8" stroke="#94a3b8" stroke-width="1.5" points="174.97,-571.95 168.47,-565.71 169.72,-564.42 176.21,-570.65 174.97,-571.95"/>
<polyline fill="none" stroke="#94a3b8" stroke-width="1.5" points="171.1,-569.48 174.21,-566.23"/>
<polygon fill="#94a3b8" stroke="#94a3b8" stroke-width="1.5" points="739.17,-453.64 748.55,-450.58 742.87,-450.28 745.45,-447.92 745.45,-447.92 745.45,-447.92 742.87,-450.28 743.1,-444.59 739.17,-453.64"/>
</g>
<!-- QUEUE_TOKEN -->
<g id="node12" class="node">
<title>QUEUE_TOKEN</title>
<polygon fill="#0284c7" stroke="none" points="1159.75,-745.25 1159.75,-774.5 1272.25,-774.5 1272.25,-745.25 1159.75,-745.25"/>
<text xml:space="preserve" text-anchor="start" x="1173.25" y="-758.1" font-family="Segoe UI" font-weight="bold" font-size="12.00" fill="#ffffff">QUEUE_TOKEN</text>
<text xml:space="preserve" text-anchor="start" x="1165.75" y="-728" font-family="Segoe UI" font-size="10.00" fill="#334155">id</text>
<text xml:space="preserve" text-anchor="start" x="1255.75" y="-731.15" font-family="Segoe UI" font-weight="bold" font-size="8.00" fill="#b45309">PK</text>
<text xml:space="preserve" text-anchor="start" x="1165.75" y="-701.75" font-family="Segoe UI" font-size="10.00" fill="#334155">concertId</text>
<text xml:space="preserve" text-anchor="start" x="1256.5" y="-704.9" font-family="Segoe UI" font-weight="bold" font-size="8.00" fill="#0369a1">FK</text>
<text xml:space="preserve" text-anchor="start" x="1165.75" y="-675.5" font-family="Segoe UI" font-size="10.00" fill="#334155">userId</text>
<text xml:space="preserve" text-anchor="start" x="1252.75" y="-678.65" font-family="Segoe UI" font-weight="bold" font-size="8.00" fill="#0369a1">FK?</text>
<text xml:space="preserve" text-anchor="start" x="1165.75" y="-649.25" font-family="Segoe UI" font-size="10.00" fill="#334155">token</text>
<text xml:space="preserve" text-anchor="start" x="1255" y="-652.4" font-family="Segoe UI" font-weight="bold" font-size="8.00" fill="#7c3aed">UK</text>
<text xml:space="preserve" text-anchor="start" x="1165.75" y="-623" font-family="Segoe UI" font-size="10.00" fill="#334155">timeBucket</text>
<text xml:space="preserve" text-anchor="start" x="1238.5" y="-623.75" font-family="Segoe UI" font-size="8.00" fill="#94a3b8">fairness</text>
<text xml:space="preserve" text-anchor="start" x="1165.75" y="-596.75" font-family="Segoe UI" font-size="10.00" fill="#334155">randomScore</text>
<text xml:space="preserve" text-anchor="start" x="1238.5" y="-597.5" font-family="Segoe UI" font-size="8.00" fill="#94a3b8">fairness</text>
<text xml:space="preserve" text-anchor="start" x="1165.75" y="-570.5" font-family="Segoe UI" font-size="10.00" fill="#334155">status</text>
<text xml:space="preserve" text-anchor="start" x="1237.75" y="-571.25" font-family="Segoe UI" font-size="8.00" fill="#94a3b8">5 states</text>
<polygon fill="none" stroke="#cbd5e1" points="1158.75,-560.5 1158.75,-775.5 1273.25,-775.5 1273.25,-560.5 1158.75,-560.5"/>
</g>
<!-- USER&#45;&gt;QUEUE_TOKEN -->
<g id="edge10" class="edge">
<title>USER&#45;&gt;QUEUE_TOKEN</title>
<path fill="none" stroke="#94a3b8" stroke-width="1.5" d="M145.96,-778.12C164.25,-815.12 190.46,-852.35 227,-873.5 310.27,-921.71 1009.29,-920.95 1093,-873.5 1126.99,-854.23 1152.6,-821.42 1171.4,-787.61"/>
<polygon fill="#94a3b8" stroke="#94a3b8" stroke-width="1.5" points="136.86,-769.4 144.99,-765.55 145.76,-767.17 137.63,-771.02 136.86,-769.4"/>
<polyline fill="none" stroke="#94a3b8" stroke-width="1.5" points="140.54,-766.66 142.47,-770.72"/>
<ellipse fill="none" stroke="#94a3b8" stroke-width="1.5" cx="144.33" cy="-774.66" rx="3.6" ry="3.6"/>
<polygon fill="#94a3b8" stroke="#94a3b8" stroke-width="1.5" points="1171.28,-787.82 1179.12,-781.82 1173.66,-783.42 1175.32,-780.34 1175.32,-780.34 1175.32,-780.34 1173.66,-783.42 1171.99,-777.98 1171.28,-787.82"/>
</g>
<!-- VERIFICATION_TOKEN -->
<g id="node4" class="node">
<title>VERIFICATION_TOKEN</title>
<polygon fill="#6366f1" stroke="none" points="236.38,-692.75 236.38,-722 373.62,-722 373.62,-692.75 236.38,-692.75"/>
<text xml:space="preserve" text-anchor="start" x="242.38" y="-705.6" font-family="Segoe UI" font-weight="bold" font-size="12.00" fill="#ffffff">VERIFICATION_TOKEN</text>
<text xml:space="preserve" text-anchor="start" x="242.38" y="-675.5" font-family="Segoe UI" font-size="10.00" fill="#334155">token</text>
<text xml:space="preserve" text-anchor="start" x="356.38" y="-678.65" font-family="Segoe UI" font-weight="bold" font-size="8.00" fill="#7c3aed">UK</text>
<text xml:space="preserve" text-anchor="start" x="242.38" y="-649.25" font-family="Segoe UI" font-size="10.00" fill="#334155">identifier</text>
<text xml:space="preserve" text-anchor="start" x="348.12" y="-650" font-family="Segoe UI" font-size="8.00" fill="#94a3b8">email</text>
<text xml:space="preserve" text-anchor="start" x="242.38" y="-623" font-family="Segoe UI" font-size="10.00" fill="#334155">expires</text>
<text xml:space="preserve" text-anchor="start" x="335.38" y="-623.75" font-family="Segoe UI" font-size="8.00" fill="#94a3b8">datetime</text>
<polygon fill="none" stroke="#cbd5e1" points="235.38,-613 235.38,-723 374.62,-723 374.62,-613 235.38,-613"/>
</g>
<!-- CONCERT -->
<g id="node5" class="node">
<title>CONCERT</title>
<polygon fill="#059669" stroke="none" points="919.12,-731.75 919.12,-761.75 1054.88,-761.75 1054.88,-731.75 919.12,-731.75"/>
<text xml:space="preserve" text-anchor="start" x="957.38" y="-744.4" font-family="Segoe UI" font-weight="bold" font-size="13.00" fill="#ffffff">CONCERT</text>
<text xml:space="preserve" text-anchor="start" x="925.12" y="-714.5" font-family="Segoe UI" font-size="10.00" fill="#334155">id</text>
<text xml:space="preserve" text-anchor="start" x="1038.38" y="-717.65" font-family="Segoe UI" font-weight="bold" font-size="8.00" fill="#b45309">PK</text>
<text xml:space="preserve" text-anchor="start" x="925.12" y="-688.25" font-family="Segoe UI" font-size="10.00" fill="#334155">slug</text>
<text xml:space="preserve" text-anchor="start" x="1037.62" y="-691.4" font-family="Segoe UI" font-weight="bold" font-size="8.00" fill="#7c3aed">UK</text>
<text xml:space="preserve" text-anchor="start" x="925.12" y="-662" font-family="Segoe UI" font-size="10.00" fill="#334155">status</text>
<text xml:space="preserve" text-anchor="start" x="1020.38" y="-662.75" font-family="Segoe UI" font-size="8.00" fill="#94a3b8">5 states</text>
<text xml:space="preserve" text-anchor="start" x="925.12" y="-635.75" font-family="Segoe UI" font-size="10.00" fill="#334155">venue</text>
<text xml:space="preserve" text-anchor="start" x="1034.62" y="-636.5" font-family="Segoe UI" font-size="8.00" fill="#94a3b8">text</text>
<text xml:space="preserve" text-anchor="start" x="925.12" y="-609.5" font-family="Segoe UI" font-size="10.00" fill="#334155">saleStartAt</text>
<text xml:space="preserve" text-anchor="start" x="1021.88" y="-610.25" font-family="Segoe UI" font-size="8.00" fill="#94a3b8">enforce</text>
<text xml:space="preserve" text-anchor="start" x="925.12" y="-583.25" font-family="Segoe UI" font-size="10.00" fill="#334155">maxTicketsPerUser</text>
<text xml:space="preserve" text-anchor="start" x="1039.12" y="-584" font-family="Segoe UI" font-size="8.00" fill="#94a3b8">=4</text>
<polygon fill="none" stroke="#cbd5e1" points="918.12,-573.25 918.12,-762.75 1055.88,-762.75 1055.88,-573.25 918.12,-573.25"/>
</g>
<!-- ZONE -->
<g id="node6" class="node">
<title>ZONE</title>
<polygon fill="#059669" stroke="none" points="936,-414.38 936,-444.38 1038,-444.38 1038,-414.38 936,-414.38"/>
<text xml:space="preserve" text-anchor="start" x="969.38" y="-427.02" font-family="Segoe UI" font-weight="bold" font-size="13.00" fill="#ffffff">ZONE</text>
<text xml:space="preserve" text-anchor="start" x="942" y="-397.12" font-family="Segoe UI" font-size="10.00" fill="#334155">id</text>
<text xml:space="preserve" text-anchor="start" x="1021.5" y="-400.27" font-family="Segoe UI" font-weight="bold" font-size="8.00" fill="#b45309">PK</text>
<text xml:space="preserve" text-anchor="start" x="942" y="-370.88" font-family="Segoe UI" font-size="10.00" fill="#334155">concertId</text>
<text xml:space="preserve" text-anchor="start" x="1022.25" y="-374.02" font-family="Segoe UI" font-weight="bold" font-size="8.00" fill="#0369a1">FK</text>
<text xml:space="preserve" text-anchor="start" x="942" y="-344.62" font-family="Segoe UI" font-size="10.00" fill="#334155">name</text>
<text xml:space="preserve" text-anchor="start" x="1008" y="-345.38" font-family="Segoe UI" font-size="8.00" fill="#94a3b8">VIP/R1</text>
<text xml:space="preserve" text-anchor="start" x="942" y="-318.38" font-family="Segoe UI" font-size="10.00" fill="#334155">price</text>
<text xml:space="preserve" text-anchor="start" x="999" y="-319.12" font-family="Segoe UI" font-size="8.00" fill="#94a3b8">DECIMAL</text>
<text xml:space="preserve" text-anchor="start" x="942" y="-292.12" font-family="Segoe UI" font-size="10.00" fill="#334155">totalSeats</text>
<text xml:space="preserve" text-anchor="start" x="1022.25" y="-292.88" font-family="Segoe UI" font-size="8.00" fill="#94a3b8">int</text>
<polygon fill="none" stroke="#cbd5e1" points="935,-282.12 935,-445.38 1039,-445.38 1039,-282.12 935,-282.12"/>
</g>
<!-- CONCERT&#45;&gt;ZONE -->
<g id="edge3" class="edge">
<title>CONCERT&#45;&gt;ZONE</title>
<path fill="none" stroke="#94a3b8" stroke-width="1.5" d="M987,-565.17C987,-530.63 987,-492.22 987,-458.35"/>
<polygon fill="#94a3b8" stroke="#94a3b8" stroke-width="1.5" points="991.5,-568.39 982.5,-568.39 982.5,-566.59 991.5,-566.59 991.5,-568.39"/>
<polyline fill="none" stroke="#94a3b8" stroke-width="1.5" points="987,-569.29 987,-564.79"/>
<polygon fill="#94a3b8" stroke="#94a3b8" stroke-width="1.5" points="987,-458.42 991.05,-449.42 987,-453.42 987,-449.93 987,-449.93 987,-449.93 987,-453.42 982.95,-449.42 987,-458.42"/>
</g>
<!-- CONCERT&#45;&gt;ORDER -->
<g id="edge11" class="edge">
<title>CONCERT&#45;&gt;ORDER</title>
<path fill="none" stroke="#94a3b8" stroke-width="1.5" d="M906.01,-668C842.55,-668 779.1,-668 715.65,-668"/>
<polygon fill="#94a3b8" stroke="#94a3b8" stroke-width="1.5" points="909.29,-663.5 909.29,-672.5 907.49,-672.5 907.49,-663.5 909.29,-663.5"/>
<polyline fill="none" stroke="#94a3b8" stroke-width="1.5" points="910.19,-668 905.69,-668"/>
<polygon fill="#94a3b8" stroke="#94a3b8" stroke-width="1.5" points="715.58,-668 706.58,-663.95 710.58,-668 707.08,-668 707.08,-668 707.08,-668 710.58,-668 706.58,-672.05 715.58,-668"/>
</g>
<!-- CONCERT&#45;&gt;QUEUE_TOKEN -->
<g id="edge12" class="edge">
<title>CONCERT&#45;&gt;QUEUE_TOKEN</title>
<path fill="none" stroke="#94a3b8" stroke-width="1.5" d="M1067.91,-668C1092.4,-668 1116.89,-668 1141.38,-668"/>
<polygon fill="#94a3b8" stroke="#94a3b8" stroke-width="1.5" points="1064.38,-672.5 1064.38,-663.5 1066.18,-663.5 1066.18,-672.5 1064.38,-672.5"/>
<polyline fill="none" stroke="#94a3b8" stroke-width="1.5" points="1063.48,-668 1067.98,-668"/>
<polygon fill="#94a3b8" stroke="#94a3b8" stroke-width="1.5" points="1141.26,-668 1150.26,-672.05 1146.26,-668 1149.76,-668 1149.76,-668 1149.76,-668 1146.26,-668 1150.26,-663.95 1141.26,-668"/>
</g>
<!-- SEAT -->
<g id="node7" class="node">
<title>SEAT</title>
<polygon fill="#059669" stroke="none" points="909.38,-136 909.38,-166 1064.62,-166 1064.62,-136 909.38,-136"/>
<text xml:space="preserve" text-anchor="start" x="972" y="-148.65" font-family="Segoe UI" font-weight="bold" font-size="13.00" fill="#ffffff">SEAT</text>
<text xml:space="preserve" text-anchor="start" x="915.38" y="-118.75" font-family="Segoe UI" font-size="10.00" fill="#334155">id</text>
<text xml:space="preserve" text-anchor="start" x="1048.12" y="-121.9" font-family="Segoe UI" font-weight="bold" font-size="8.00" fill="#b45309">PK</text>
<text xml:space="preserve" text-anchor="start" x="915.38" y="-92.5" font-family="Segoe UI" font-size="10.00" fill="#334155">zoneId</text>
<text xml:space="preserve" text-anchor="start" x="1048.88" y="-95.65" font-family="Segoe UI" font-weight="bold" font-size="8.00" fill="#0369a1">FK</text>
<text xml:space="preserve" text-anchor="start" x="915.38" y="-66.25" font-family="Segoe UI" font-size="10.00" fill="#334155">rowLabel+seatNumber</text>
<text xml:space="preserve" text-anchor="start" x="1047.38" y="-69.4" font-family="Segoe UI" font-weight="bold" font-size="8.00" fill="#7c3aed">UK</text>
<text xml:space="preserve" text-anchor="start" x="915.38" y="-40" font-family="Segoe UI" font-size="10.00" fill="#334155">status</text>
<text xml:space="preserve" text-anchor="start" x="1030.12" y="-40.75" font-family="Segoe UI" font-size="8.00" fill="#94a3b8">4 states</text>
<polygon fill="none" stroke="#cbd5e1" points="908.38,-30 908.38,-167 1065.62,-167 1065.62,-30 908.38,-30"/>
</g>
<!-- ZONE&#45;&gt;SEAT -->
<g id="edge4" class="edge">
<title>ZONE&#45;&gt;SEAT</title>
<path fill="none" stroke="#94a3b8" stroke-width="1.5" d="M987,-274.28C987,-243.83 987,-209.91 987,-180.12"/>
<polygon fill="#94a3b8" stroke="#94a3b8" stroke-width="1.5" points="991.5,-277.47 982.5,-277.47 982.5,-275.67 991.5,-275.67 991.5,-277.47"/>
<polyline fill="none" stroke="#94a3b8" stroke-width="1.5" points="987,-278.37 987,-273.87"/>
<polygon fill="#94a3b8" stroke="#94a3b8" stroke-width="1.5" points="987,-180.1 991.05,-171.1 987,-175.1 987,-171.61 987,-171.61 987,-171.61 987,-175.1 982.95,-171.1 987,-180.1"/>
</g>
<!-- ORDER_ITEM -->
<g id="node9" class="node">
<title>ORDER_ITEM</title>
<polygon fill="#d97706" stroke="none" points="436,-401.62 436,-430.88 526,-430.88 526,-401.62 436,-401.62"/>
<text xml:space="preserve" text-anchor="start" x="444.25" y="-414.48" font-family="Segoe UI" font-weight="bold" font-size="12.00" fill="#ffffff">ORDER_ITEM</text>
<text xml:space="preserve" text-anchor="start" x="442" y="-384.38" font-family="Segoe UI" font-size="10.00" fill="#334155">id</text>
<text xml:space="preserve" text-anchor="start" x="509.5" y="-387.52" font-family="Segoe UI" font-weight="bold" font-size="8.00" fill="#b45309">PK</text>
<text xml:space="preserve" text-anchor="start" x="442" y="-358.12" font-family="Segoe UI" font-size="10.00" fill="#334155">orderId</text>
<text xml:space="preserve" text-anchor="start" x="510.25" y="-361.27" font-family="Segoe UI" font-weight="bold" font-size="8.00" fill="#0369a1">FK</text>
<text xml:space="preserve" text-anchor="start" x="442" y="-331.88" font-family="Segoe UI" font-size="10.00" fill="#334155">seatId</text>
<text xml:space="preserve" text-anchor="start" x="495.25" y="-335.02" font-family="Segoe UI" font-weight="bold" font-size="8.00" fill="#0369a1">FK/UK</text>
<text xml:space="preserve" text-anchor="start" x="442" y="-305.62" font-family="Segoe UI" font-size="10.00" fill="#334155">price</text>
<text xml:space="preserve" text-anchor="start" x="487.75" y="-306.38" font-family="Segoe UI" font-size="8.00" fill="#94a3b8">snapshot</text>
<polygon fill="none" stroke="#cbd5e1" points="435,-295.62 435,-431.88 527,-431.88 527,-295.62 435,-295.62"/>
</g>
<!-- SEAT&#45;&gt;ORDER_ITEM -->
<g id="edge13" class="edge">
<title>SEAT&#45;&gt;ORDER_ITEM</title>
<path fill="none" stroke="#94a3b8" stroke-width="1.5" stroke-dasharray="5,2" d="M896.28,-111.95C802.01,-128.8 654.34,-166.56 553,-247 541.13,-256.43 530.69,-268.38 521.71,-281.01"/>
<polygon fill="#94a3b8" stroke="#94a3b8" stroke-width="1.5" points="898.78,-106.94 900.35,-115.8 898.58,-116.12 897.01,-107.25 898.78,-106.94"/>
<polyline fill="none" stroke="#94a3b8" stroke-width="1.5" points="900.45,-111.22 896.02,-112"/>
<polygon fill="#94a3b8" stroke="#94a3b8" stroke-width="1.5" points="518.74,-293.5 511.27,-288.49 512.27,-286.99 519.75,-292.01 518.74,-293.5"/>
<polyline fill="none" stroke="#94a3b8" stroke-width="1.5" points="514.51,-291.74 517.01,-288.01"/>
<ellipse fill="none" stroke="#94a3b8" stroke-width="1.5" cx="519.44" cy="-284.39" rx="3.6" ry="3.6"/>
</g>
<!-- SEAT&#45;&gt;TICKET -->
<g id="edge14" class="edge">
<title>SEAT&#45;&gt;TICKET</title>
<path fill="none" stroke="#94a3b8" stroke-width="1.5" stroke-dasharray="5,2" d="M920.06,-173.98C900.79,-196.77 880.31,-222.33 863,-247 858.45,-253.49 853.92,-260.3 849.49,-267.24"/>
<polygon fill="#94a3b8" stroke="#94a3b8" stroke-width="1.5" points="918.88,-168.42 925.75,-174.24 924.58,-175.61 917.72,-169.79 918.88,-168.42"/>
<polyline fill="none" stroke="#94a3b8" stroke-width="1.5" points="922.9,-170.64 919.99,-174.08"/>
<polygon fill="#94a3b8" stroke="#94a3b8" stroke-width="1.5" points="846.91,-279.84 839.28,-275.06 840.24,-273.54 847.86,-278.31 846.91,-279.84"/>
<polyline fill="none" stroke="#94a3b8" stroke-width="1.5" points="842.62,-278.22 845.01,-274.4"/>
<ellipse fill="none" stroke="#94a3b8" stroke-width="1.5" cx="847.31" cy="-270.71" rx="3.6" ry="3.6"/>
</g>
<!-- ORDER&#45;&gt;ORDER_ITEM -->
<g id="edge5" class="edge">
<title>ORDER&#45;&gt;ORDER_ITEM</title>
<path fill="none" stroke="#94a3b8" stroke-width="1.5" d="M586.58,-565.45C565.76,-525.88 542.27,-481.21 522.73,-444.08"/>
<polygon fill="#94a3b8" stroke="#94a3b8" stroke-width="1.5" points="592.16,-566.39 584.2,-570.58 583.36,-568.99 591.32,-564.8 592.16,-566.39"/>
<polyline fill="none" stroke="#94a3b8" stroke-width="1.5" points="588.6,-569.29 586.5,-565.3"/>
<polygon fill="#94a3b8" stroke="#94a3b8" stroke-width="1.5" points="522.79,-444.2 522.19,-434.35 520.47,-439.77 518.84,-436.68 518.84,-436.68 518.84,-436.68 520.47,-439.77 515.02,-438.12 522.79,-444.2"/>
</g>
<!-- PAYMENT -->
<g id="node10" class="node">
<title>PAYMENT</title>
<polygon fill="#d97706" stroke="none" points="579.62,-427.5 579.62,-457.5 700.38,-457.5 700.38,-427.5 579.62,-427.5"/>
<text xml:space="preserve" text-anchor="start" x="609.25" y="-440.15" font-family="Segoe UI" font-weight="bold" font-size="13.00" fill="#ffffff">PAYMENT</text>
<text xml:space="preserve" text-anchor="start" x="585.62" y="-410.25" font-family="Segoe UI" font-size="10.00" fill="#334155">id</text>
<text xml:space="preserve" text-anchor="start" x="683.88" y="-413.4" font-family="Segoe UI" font-weight="bold" font-size="8.00" fill="#b45309">PK</text>
<text xml:space="preserve" text-anchor="start" x="585.62" y="-384" font-family="Segoe UI" font-size="10.00" fill="#334155">orderId</text>
<text xml:space="preserve" text-anchor="start" x="669.62" y="-387.15" font-family="Segoe UI" font-weight="bold" font-size="8.00" fill="#0369a1">FK/UK</text>
<text xml:space="preserve" text-anchor="start" x="585.62" y="-357.75" font-family="Segoe UI" font-size="10.00" fill="#334155">status</text>
<text xml:space="preserve" text-anchor="start" x="665.88" y="-358.5" font-family="Segoe UI" font-size="8.00" fill="#94a3b8">4 states</text>
<text xml:space="preserve" text-anchor="start" x="585.62" y="-331.5" font-family="Segoe UI" font-size="10.00" fill="#334155">slipRef</text>
<text xml:space="preserve" text-anchor="start" x="683.12" y="-334.65" font-family="Segoe UI" font-weight="bold" font-size="8.00" fill="#7c3aed">UK</text>
<text xml:space="preserve" text-anchor="start" x="585.62" y="-305.25" font-family="Segoe UI" font-size="10.00" fill="#334155">senderAccount</text>
<text xml:space="preserve" text-anchor="start" x="674.88" y="-306" font-family="Segoe UI" font-size="8.00" fill="#94a3b8">payer</text>
<text xml:space="preserve" text-anchor="start" x="585.62" y="-279" font-family="Segoe UI" font-size="10.00" fill="#334155">payerKey</text>
<text xml:space="preserve" text-anchor="start" x="680.88" y="-282.15" font-family="Segoe UI" font-weight="bold" font-size="8.00" fill="#db2777">IDX</text>
<polygon fill="none" stroke="#cbd5e1" points="578.62,-269 578.62,-458.5 701.38,-458.5 701.38,-269 578.62,-269"/>
</g>
<!-- ORDER&#45;&gt;PAYMENT -->
<g id="edge6" class="edge">
<title>ORDER&#45;&gt;PAYMENT</title>
<path fill="none" stroke="#94a3b8" stroke-width="1.5" d="M640,-564.85C640,-536.02 640,-504.53 640,-475.23"/>
<polygon fill="#94a3b8" stroke="#94a3b8" stroke-width="1.5" points="644.5,-568.39 635.5,-568.39 635.5,-566.59 644.5,-566.59 644.5,-568.39"/>
<polyline fill="none" stroke="#94a3b8" stroke-width="1.5" points="640,-569.29 640,-564.79"/>
<polygon fill="#94a3b8" stroke="#94a3b8" stroke-width="1.5" points="635.5,-463.29 644.5,-463.29 644.5,-465.09 635.5,-465.09 635.5,-463.29"/>
<polyline fill="none" stroke="#94a3b8" stroke-width="1.5" points="640,-462.39 640,-466.89"/>
<ellipse fill="none" stroke="#94a3b8" stroke-width="1.5" cx="640" cy="-471.24" rx="3.6" ry="3.6"/>
</g>
<!-- ORDER&#45;&gt;TICKET -->
<g id="edge7" class="edge">
<title>ORDER&#45;&gt;TICKET</title>
<path fill="none" stroke="#94a3b8" stroke-width="1.5" d="M692.32,-565.63C710.43,-530.54 730.63,-491.41 748.34,-457.08"/>
<polygon fill="#94a3b8" stroke="#94a3b8" stroke-width="1.5" points="694.84,-570.55 686.85,-566.42 687.67,-564.82 695.67,-568.95 694.84,-570.55"/>
<polyline fill="none" stroke="#94a3b8" stroke-width="1.5" points="690.43,-569.29 692.5,-565.29"/>
<polygon fill="#94a3b8" stroke="#94a3b8" stroke-width="1.5" points="748.2,-457.37 755.93,-451.23 750.49,-452.92 752.1,-449.81 752.1,-449.81 752.1,-449.81 750.49,-452.92 748.73,-447.51 748.2,-457.37"/>
</g>
<!-- BOT_EVENT -->
<g id="node13" class="node">
<title>BOT_EVENT</title>
<polygon fill="#e11d48" stroke="none" points="1357,-731.75 1357,-761.75 1459,-761.75 1459,-731.75 1357,-731.75"/>
<text xml:space="preserve" text-anchor="start" x="1372.75" y="-744.4" font-family="Segoe UI" font-weight="bold" font-size="13.00" fill="#ffffff">BOT_EVENT</text>
<text xml:space="preserve" text-anchor="start" x="1363" y="-714.5" font-family="Segoe UI" font-size="10.00" fill="#334155">id</text>
<text xml:space="preserve" text-anchor="start" x="1442.5" y="-717.65" font-family="Segoe UI" font-weight="bold" font-size="8.00" fill="#b45309">PK</text>
<text xml:space="preserve" text-anchor="start" x="1363" y="-688.25" font-family="Segoe UI" font-size="10.00" fill="#334155">userId</text>
<text xml:space="preserve" text-anchor="start" x="1435" y="-689" font-family="Segoe UI" font-size="8.00" fill="#94a3b8">audit</text>
<text xml:space="preserve" text-anchor="start" x="1363" y="-662" font-family="Segoe UI" font-size="10.00" fill="#334155">score</text>
<text xml:space="preserve" text-anchor="start" x="1432" y="-662.75" font-family="Segoe UI" font-size="8.00" fill="#94a3b8">0&#45;100</text>
<text xml:space="preserve" text-anchor="start" x="1363" y="-635.75" font-family="Segoe UI" font-size="10.00" fill="#334155">action</text>
<text xml:space="preserve" text-anchor="start" x="1424.5" y="-636.5" font-family="Segoe UI" font-size="8.00" fill="#94a3b8">3 states</text>
<text xml:space="preserve" text-anchor="start" x="1363" y="-609.5" font-family="Segoe UI" font-size="10.00" fill="#334155">signals</text>
<text xml:space="preserve" text-anchor="start" x="1438" y="-610.25" font-family="Segoe UI" font-size="8.00" fill="#94a3b8">json</text>
<text xml:space="preserve" text-anchor="start" x="1363" y="-583.25" font-family="Segoe UI" font-size="10.00" fill="#334155">checkpoint</text>
<text xml:space="preserve" text-anchor="start" x="1433.5" y="-584" font-family="Segoe UI" font-size="8.00" fill="#94a3b8">stage</text>
<polygon fill="none" stroke="#cbd5e1" points="1356,-573.25 1356,-762.75 1460,-762.75 1460,-573.25 1356,-573.25"/>
</g>
<!-- BEHAVIOR_SESSION -->
<g id="node14" class="node">
<title>BEHAVIOR_SESSION</title>
<polygon fill="#e11d48" stroke="none" points="1513.38,-720.12 1513.38,-747.12 1650.62,-747.12 1650.62,-720.12 1513.38,-720.12"/>
<text xml:space="preserve" text-anchor="start" x="1529.5" y="-731.67" font-family="Segoe UI" font-weight="bold" font-size="11.00" fill="#ffffff">BEHAVIOR_SESSION</text>
<text xml:space="preserve" text-anchor="start" x="1519.38" y="-702.88" font-family="Segoe UI" font-size="10.00" fill="#334155">id</text>
<text xml:space="preserve" text-anchor="start" x="1634.12" y="-706.02" font-family="Segoe UI" font-weight="bold" font-size="8.00" fill="#b45309">PK</text>
<text xml:space="preserve" text-anchor="start" x="1519.38" y="-676.62" font-family="Segoe UI" font-size="10.00" fill="#334155">sessionKey</text>
<text xml:space="preserve" text-anchor="start" x="1633.38" y="-679.77" font-family="Segoe UI" font-weight="bold" font-size="8.00" fill="#7c3aed">UK</text>
<text xml:space="preserve" text-anchor="start" x="1519.38" y="-650.38" font-family="Segoe UI" font-size="10.00" fill="#334155">mouseTimingVariance</text>
<text xml:space="preserve" text-anchor="start" x="1628.88" y="-651.12" font-family="Segoe UI" font-size="8.00" fill="#94a3b8">float</text>
<text xml:space="preserve" text-anchor="start" x="1519.38" y="-624.12" font-family="Segoe UI" font-size="10.00" fill="#334155">mousePathEntropy</text>
<text xml:space="preserve" text-anchor="start" x="1628.88" y="-624.88" font-family="Segoe UI" font-size="8.00" fill="#94a3b8">float</text>
<text xml:space="preserve" text-anchor="start" x="1519.38" y="-597.88" font-family="Segoe UI" font-size="10.00" fill="#334155">isLikelyBot</text>
<text xml:space="preserve" text-anchor="start" x="1628.88" y="-598.62" font-family="Segoe UI" font-size="8.00" fill="#94a3b8">bool</text>
<polygon fill="none" stroke="#cbd5e1" points="1512.38,-587.88 1512.38,-748.12 1651.62,-748.12 1651.62,-587.88 1512.38,-587.88"/>
</g>
</g>
</svg>
